<svg width="420" height="313" viewBox="0 0 420 313" fill="none" xmlns="http://www.w3.org/2000/svg">
<path d="M420 275.016H0V275.226H420V275.016Z" fill="#EBEBEB"/>
<path d="M377.917 288.532H350.096V288.742H377.917V288.532Z" fill="#EBEBEB"/>
<path d="M278.224 290.816H270.925V291.026H278.224V290.816Z" fill="#EBEBEB"/>
<path d="M349.255 280.736H333.136V280.946H349.255V280.736Z" fill="#EBEBEB"/>
<path d="M80.346 282.147H44.0664V282.357H80.346V282.147Z" fill="#EBEBEB"/>
<path d="M93.1473 282.147H87.8301V282.357H93.1473V282.147Z" fill="#EBEBEB"/>
<path d="M189.126 285.692H110.435V285.902H189.126V285.692Z" fill="#EBEBEB"/>
<path d="M199.08 237.552H36.8847C35.6141 237.55 34.3962 237.043 33.4985 236.144C32.6009 235.245 32.0967 234.026 32.0967 232.756V4.7544C32.1077 3.49106 32.6168 2.2831 33.5133 1.3929C34.4098 0.502705 35.6213 0.00216417 36.8847 0H199.08C200.352 0 201.572 0.505334 202.472 1.40483C203.371 2.30433 203.877 3.52431 203.877 4.7964V232.756C203.877 234.028 203.371 235.248 202.472 236.147C201.572 237.047 200.352 237.552 199.08 237.552ZM36.8847 0.168001C35.6697 0.170226 34.5053 0.654415 33.647 1.51429C32.7887 2.37417 32.3067 3.53946 32.3067 4.7544V232.756C32.3067 233.971 32.7887 235.136 33.647 235.996C34.5053 236.856 35.6697 237.34 36.8847 237.342H199.08C200.296 237.34 201.461 236.856 202.321 235.996C203.181 235.137 203.664 233.971 203.667 232.756V4.7544C203.664 3.53869 203.181 2.37341 202.321 1.51378C201.461 0.654142 200.296 0.170221 199.08 0.168001H36.8847Z" fill="#EBEBEB"/>
<path d="M380.781 237.552H218.577C217.305 237.55 216.087 237.044 215.188 236.145C214.289 235.246 213.782 234.027 213.78 232.756V4.7544C213.794 3.49029 214.304 2.28234 215.202 1.39238C216.1 0.502411 217.312 0.00214056 218.577 0H380.781C382.043 0.00437178 383.252 0.505889 384.147 1.39585C385.041 2.28581 385.549 3.49251 385.56 4.7544V232.756C385.56 234.025 385.057 235.242 384.161 236.141C383.266 237.04 382.05 237.548 380.781 237.552ZM218.577 0.168001C217.361 0.170221 216.196 0.654142 215.336 1.51378C214.476 2.37341 213.992 3.53869 213.99 4.7544V232.756C213.992 233.971 214.476 235.137 215.336 235.996C216.196 236.856 217.361 237.34 218.577 237.342H380.781C381.996 237.34 383.162 236.856 384.021 235.996C384.881 235.137 385.365 233.971 385.367 232.756V4.7544C385.365 3.53869 384.881 2.37341 384.021 1.51378C383.162 0.654142 381.996 0.170221 380.781 0.168001H218.577Z" fill="#EBEBEB"/>
<path d="M56.1038 275.016H170.092L170.092 34.1125H56.1038L56.1038 275.016Z" fill="#E6E6E6"/>
<path d="M53.5755 275.016H167.563L167.563 34.1125H53.5755L53.5755 275.016Z" fill="#F5F5F5"/>
<path d="M163.019 269.909V39.2195L58.1278 39.2195L58.1278 269.909H163.019Z" fill="#FAFAFA"/>
<path d="M138.861 269.909L112.283 39.2195H82.2783L108.856 269.909H138.861Z" fill="white"/>
<path d="M60.043 269.909L60.043 39.2195H58.1278L58.1278 269.909H60.043Z" fill="#E6E6E6"/>
<path d="M55.4568 66.0576L165.682 66.0576V59.2032L55.4568 59.2032V66.0576Z" fill="#F5F5F5"/>
<path d="M230.354 275.016V135.24H184.33V275.016H230.354Z" fill="#F0F0F0"/>
<path d="M227.825 180.289V139.323H186.858V180.289H227.825Z" fill="#F5F5F5"/>
<path d="M227.825 224.935V183.969H186.858V224.935H227.825Z" fill="#F5F5F5"/>
<path d="M227.825 269.581V228.615H186.858V269.581H227.825Z" fill="#F5F5F5"/>
<path d="M216.409 138.785H198.239C198.234 139.343 198.34 139.897 198.551 140.415C198.762 140.932 199.074 141.402 199.469 141.797C199.864 142.192 200.334 142.504 200.852 142.715C201.369 142.926 201.923 143.032 202.481 143.027H212.125C212.685 143.031 213.241 142.925 213.76 142.714C214.279 142.503 214.751 142.191 215.149 141.797C215.547 141.402 215.863 140.933 216.08 140.416C216.296 139.9 216.408 139.345 216.409 138.785Z" fill="#E6E6E6"/>
<path d="M216.409 183.431H198.24C198.24 184.557 198.687 185.637 199.482 186.433C200.277 187.23 201.356 187.679 202.482 187.681H212.125C212.686 187.685 213.242 187.577 213.761 187.365C214.28 187.153 214.752 186.841 215.15 186.446C215.548 186.051 215.864 185.581 216.08 185.064C216.297 184.547 216.408 183.992 216.409 183.431Z" fill="#E6E6E6"/>
<path d="M216.409 228.077H198.24C198.24 229.202 198.687 230.282 199.482 231.079C200.277 231.876 201.356 232.325 202.482 232.327H212.125C212.686 232.33 213.242 232.223 213.761 232.011C214.28 231.799 214.752 231.486 215.15 231.092C215.548 230.697 215.864 230.227 216.08 229.71C216.297 229.192 216.408 228.637 216.409 228.077Z" fill="#E6E6E6"/>
<path d="M253.336 275.016V135.24H230.345V275.016H253.336Z" fill="#F5F5F5"/>
<path d="M353.212 271.58H365.972V166.345H353.212V271.58Z" fill="#F0F0F0"/>
<path d="M241.685 275.016H364.207V271.581H241.685V275.016Z" fill="#F0F0F0"/>
<path d="M353.211 166.345H239.912V271.58H353.211V166.345Z" fill="#FAFAFA"/>
<path d="M262.08 227.842H331.01C334.265 227.842 337.387 226.549 339.688 224.247C341.99 221.946 343.283 218.824 343.283 215.569C343.283 212.314 341.99 209.193 339.688 206.891C337.387 204.59 334.265 203.297 331.01 203.297H262.08C258.825 203.297 255.704 204.59 253.402 206.891C251.101 209.193 249.808 212.314 249.808 215.569C249.808 218.824 251.101 221.946 253.402 224.247C255.704 226.549 258.825 227.842 262.08 227.842ZM331.027 204.12C332.531 204.12 334.02 204.416 335.409 204.992C336.798 205.567 338.06 206.41 339.123 207.473C340.186 208.537 341.03 209.799 341.605 211.188C342.18 212.577 342.476 214.066 342.476 215.569C342.476 217.073 342.18 218.562 341.605 219.951C341.03 221.34 340.186 222.602 339.123 223.665C338.06 224.728 336.798 225.572 335.409 226.147C334.02 226.722 332.531 227.018 331.027 227.018H262.08C259.043 227.018 256.131 225.812 253.984 223.665C251.837 221.518 250.631 218.606 250.631 215.569C250.631 212.533 251.837 209.621 253.984 207.473C256.131 205.326 259.043 204.12 262.08 204.12H331.027Z" fill="#F0F0F0"/>
<path d="M262.08 258.376H331.01C334.265 258.376 337.387 257.083 339.688 254.781C341.99 252.48 343.283 249.358 343.283 246.103C343.283 242.848 341.99 239.727 339.688 237.425C337.387 235.124 334.265 233.831 331.01 233.831H262.08C258.825 233.831 255.704 235.124 253.402 237.425C251.101 239.727 249.808 242.848 249.808 246.103C249.808 249.358 251.101 252.48 253.402 254.781C255.704 257.083 258.825 258.376 262.08 258.376ZM331.01 234.654C332.539 234.613 334.061 234.878 335.486 235.435C336.911 235.991 338.21 236.827 339.306 237.894C340.402 238.961 341.273 240.237 341.868 241.646C342.463 243.055 342.77 244.569 342.77 246.099C342.77 247.629 342.463 249.143 341.868 250.552C341.273 251.961 340.402 253.237 339.306 254.304C338.21 255.371 336.911 256.207 335.486 256.764C334.061 257.32 332.539 257.585 331.01 257.544H262.08C260.551 257.585 259.029 257.32 257.604 256.764C256.179 256.207 254.881 255.371 253.784 254.304C252.688 253.237 251.817 251.961 251.222 250.552C250.627 249.143 250.321 247.629 250.321 246.099C250.321 244.569 250.627 243.055 251.222 241.646C251.817 240.237 252.688 238.961 253.784 237.894C254.881 236.827 256.179 235.991 257.604 235.435C259.029 234.878 260.551 234.613 262.08 234.654H331.01Z" fill="#F0F0F0"/>
<path d="M286.163 212.923H306.961C307.64 212.921 308.29 212.65 308.77 212.17C309.25 211.69 309.521 211.04 309.523 210.361C309.521 209.683 309.25 209.032 308.77 208.552C308.29 208.072 307.64 207.802 306.961 207.799H286.163C285.484 207.802 284.833 208.072 284.353 208.552C283.873 209.032 283.603 209.683 283.601 210.361C283.603 211.04 283.873 211.69 284.353 212.17C284.833 212.65 285.484 212.921 286.163 212.923Z" fill="#EBEBEB"/>
<path d="M262.08 197.307H331.01C334.265 197.307 337.387 196.015 339.688 193.713C341.99 191.411 343.283 188.29 343.283 185.035C343.283 181.78 341.99 178.659 339.688 176.357C337.387 174.056 334.265 172.763 331.01 172.763H262.08C258.825 172.763 255.704 174.056 253.402 176.357C251.101 178.659 249.808 181.78 249.808 185.035C249.808 188.29 251.101 191.411 253.402 193.713C255.704 196.015 258.825 197.307 262.08 197.307ZM331.01 173.586C334.047 173.586 336.959 174.792 339.106 176.939C341.253 179.086 342.46 181.999 342.46 185.035C342.46 188.072 341.253 190.984 339.106 193.131C336.959 195.278 334.047 196.484 331.01 196.484H262.08C259.043 196.484 256.131 195.278 253.984 193.131C251.837 190.984 250.631 188.072 250.631 185.035C250.631 181.999 251.837 179.086 253.984 176.939C256.131 174.792 259.043 173.586 262.08 173.586H331.01Z" fill="#F0F0F0"/>
<path d="M286.163 182.389H306.961C307.64 182.387 308.29 182.116 308.77 181.636C309.25 181.156 309.521 180.506 309.523 179.827C309.512 179.155 309.237 178.514 308.758 178.043C308.279 177.571 307.633 177.307 306.961 177.307H286.163C285.49 177.307 284.845 177.571 284.366 178.043C283.886 178.514 283.612 179.155 283.601 179.827C283.603 180.506 283.873 181.156 284.353 181.636C284.833 182.116 285.484 182.387 286.163 182.389Z" fill="#EBEBEB"/>
<path d="M286.163 243.449H306.961C307.633 243.449 308.279 243.185 308.758 242.713C309.237 242.242 309.512 241.601 309.523 240.929C309.51 240.257 309.234 239.618 308.756 239.147C308.277 238.676 307.633 238.411 306.961 238.409H286.163C285.491 238.411 284.847 238.676 284.368 239.147C283.889 239.618 283.614 240.257 283.601 240.929C283.612 241.601 283.886 242.242 284.366 242.713C284.845 243.185 285.49 243.449 286.163 243.449Z" fill="#EBEBEB"/>
<path d="M237.577 166.345H353.203V160.994H237.577V166.345Z" fill="#F0F0F0"/>
<path d="M368.475 161.003H353.212V166.354H368.475V161.003Z" fill="#E6E6E6"/>
<path d="M270.48 76.7677C273.059 78.0613 280.048 76.6669 277.721 81.3961C276.381 83.8734 274.778 86.1995 272.941 88.3345C270.337 91.5517 270.833 95.0545 273.907 96.2977C274.567 96.5238 275.149 96.9314 275.587 97.4737C277.007 99.5065 273.664 102.228 272.017 104.261C270.371 106.294 269.716 108.293 270.925 109.805C272.269 111.485 275.058 110.855 277.276 111.359C282.601 112.577 277.124 119.927 277.687 123.698C278.074 126.286 280.207 127.008 283.021 127.369C285.348 127.672 288.448 127.882 288.574 130.259C288.691 132.325 286.003 134.66 285.298 136.828C284.963 137.76 284.836 138.755 284.926 139.741C285.016 140.728 285.32 141.683 285.818 142.54C286.291 143.262 286.908 143.878 287.631 144.349C288.354 144.821 289.167 145.137 290.018 145.278C292.656 145.832 296.646 145.278 296.839 148.235C296.923 149.562 295.999 150.755 296.638 151.964C296.991 152.475 297.452 152.902 297.987 153.217C298.522 153.532 299.119 153.726 299.737 153.787C302.263 154.173 304.837 154.128 307.348 153.653C310.447 153.082 315.025 150.352 313.345 147.722C313.056 147.345 312.694 147.03 312.282 146.793C311.87 146.557 311.414 146.404 310.943 146.345C310.204 146.194 308.036 146.429 307.759 145.925C307.482 145.421 308.23 143.48 308.255 142.783C308.331 140.847 308.026 138.915 307.356 137.096C306.5 134.719 305.136 132.558 303.358 130.763C302.618 130.015 301.451 129.469 301.3 128.386C301.148 127.302 301.829 126.109 302.585 125.026C303.769 123.346 305.609 121.766 306.272 119.986C307.314 117.18 304.786 116.29 302.442 115.651C300.325 115.072 297.536 114.332 298.242 111.762C298.763 109.906 301.106 108.402 301.804 106.571C302.753 104.143 300.451 104.051 298.813 103.211C296.671 102.085 296.134 100.069 296.906 97.5241C298.192 93.3241 305.894 87.3853 301.946 84.6553C300.947 83.9581 300.014 83.7313 299.426 82.6813C298.838 81.6313 298.687 80.1613 297.847 79.1701C296.52 77.5657 293.773 77.2969 292.345 75.8101C289.397 72.7525 295.756 67.3345 289.951 66.0409C288.726 65.8831 287.565 65.3986 286.591 64.6381C286.062 64.1425 285.625 61.7485 285.029 61.5805C282.366 60.8413 277.57 66.0073 276.058 67.5949C274.218 69.5101 267.422 75.2221 270.48 76.7677Z" fill="#E0E0E0"/>
<path d="M316.168 148.016C314.589 145.085 307.676 142.136 312.262 138.776C314.736 137.093 317.397 135.703 320.192 134.635C324.207 132.955 325.635 129.091 323.602 125.891C323.135 125.218 322.846 124.438 322.762 123.623C322.594 120.666 327.004 119.96 329.541 118.894C332.078 117.827 333.741 116.197 333.464 113.896C333.178 111.376 330.389 110.25 328.701 108.36C324.652 103.807 333.422 99.6828 334.942 95.466C335.984 92.5763 334.522 90.5352 332.204 88.3932C330.314 86.6376 327.685 84.504 328.844 81.984C329.852 79.8 333.472 79.0776 335.253 77.2968C336.075 76.4916 336.728 75.5312 337.175 74.4713C337.622 73.4113 337.854 72.2731 337.857 71.1228C337.817 69.1072 337.023 67.18 335.631 65.7216C333.598 63.5124 329.751 61.6224 331.187 58.4556C331.826 57.0444 333.279 56.4144 333.363 54.7596C333.337 54.043 333.169 53.3388 332.867 52.6882C332.566 52.0377 332.137 51.4539 331.607 50.9712C329.64 49.0433 327.341 47.4866 324.82 46.3764C321.779 45.0324 316.277 44.9904 316.353 48.7284C316.447 49.8289 316.937 50.8582 317.73 51.6264C318.31 52.248 320.343 53.3484 320.318 54.0372C320.292 54.726 318.638 56.2464 318.192 56.9436C317.079 58.9248 316.32 61.0852 315.95 63.3276C315.43 66.3001 315.478 69.3443 316.092 72.2988C316.336 73.5168 317.084 74.8188 316.63 76.0116C316.176 77.2044 314.95 78.0108 313.715 78.624C311.775 79.5984 309.297 80.094 307.76 81.5052C305.332 83.7312 307.088 86.2175 308.818 88.326C310.381 90.2327 312.438 92.7192 310.431 94.9116C308.978 96.4908 306.096 96.5915 304.551 98.0111C302.417 99.9179 304.391 101.438 305.391 103.354C306.668 105.874 306.071 108.226 304.022 110.351C300.662 113.862 290.666 115.156 292.69 120.431C293.202 121.766 293.891 122.581 293.866 124.026C293.841 125.471 293.177 127.05 293.379 128.604C293.69 131.074 295.966 133.056 296.436 135.467C297.394 140.431 288.876 142.036 293.312 146.958C294.347 147.929 295.117 149.149 295.546 150.503C295.756 151.343 294.849 154.056 295.286 154.602C297.243 157.013 304.24 154.711 306.424 154.014C309.003 153.132 318.058 151.502 316.168 148.016Z" fill="#F5F5F5"/>
<path d="M333.875 141.406C333.875 141.406 333.035 161.003 300.964 161.003C268.893 161.003 268.053 141.406 268.053 141.406H333.875Z" fill="#F0F0F0"/>
<path d="M210 312.95C299.95 312.95 372.868 308.693 372.868 303.442C372.868 298.19 299.95 293.933 210 293.933C120.051 293.933 47.1328 298.19 47.1328 303.442C47.1328 308.693 120.051 312.95 210 312.95Z" fill="#F5F5F5"/>
<g opacity="0.2">
<path d="M303.013 296.411L249.513 197.526L196.014 296.411H303.013Z" fill="#407BFF"/>
<path d="M303.013 129.125L249.513 228.001L196.014 129.125H303.013Z" fill="#407BFF"/>
</g>
<path d="M259.317 187.505L251.488 201.97C251.296 202.326 251.011 202.624 250.663 202.831C250.316 203.038 249.919 203.148 249.514 203.148C249.109 203.148 248.712 203.038 248.364 202.831C248.017 202.624 247.732 202.326 247.54 201.97L239.711 187.505C239.005 186.197 238.651 184.729 238.684 183.244C238.716 181.758 239.134 180.307 239.896 179.031C240.658 177.756 241.739 176.7 243.032 175.968C244.324 175.236 245.785 174.852 247.271 174.855H251.799C253.281 174.86 254.736 175.249 256.024 175.984C257.311 176.719 258.385 177.775 259.142 179.049C259.9 180.324 260.314 181.772 260.344 183.254C260.375 184.736 260.021 186.201 259.317 187.505Z" fill="#407BFF"/>
<path d="M250.362 271.446L274.68 281.442C275.154 281.642 275.546 282 275.788 282.454C276.03 282.908 276.108 283.432 276.01 283.938C275.911 284.443 275.642 284.9 275.247 285.23C274.852 285.56 274.355 285.744 273.84 285.751H225.229C224.714 285.744 224.217 285.56 223.822 285.23C223.427 284.9 223.158 284.443 223.059 283.938C222.96 283.432 223.039 282.908 223.281 282.454C223.523 282 223.915 281.642 224.389 281.442L248.64 271.446C248.912 271.332 249.205 271.273 249.501 271.273C249.796 271.273 250.089 271.332 250.362 271.446Z" fill="#407BFF"/>
<path d="M249.514 252.429C251.235 252.429 252.63 251.033 252.63 249.312C252.63 247.591 251.235 246.196 249.514 246.196C247.793 246.196 246.397 247.591 246.397 249.312C246.397 251.033 247.793 252.429 249.514 252.429Z" fill="#407BFF"/>
<path d="M249.514 218.366C250.4 218.366 251.118 217.648 251.118 216.762C251.118 215.876 250.4 215.158 249.514 215.158C248.627 215.158 247.909 215.876 247.909 216.762C247.909 217.648 248.627 218.366 249.514 218.366Z" fill="#407BFF"/>
<path d="M249.514 234.1C250.521 234.1 251.337 233.284 251.337 232.277C251.337 231.27 250.521 230.454 249.514 230.454C248.508 230.454 247.691 231.27 247.691 232.277C247.691 233.284 248.508 234.1 249.514 234.1Z" fill="#407BFF"/>
<path d="M302.745 291.531H196.283C194.991 291.535 193.753 292.051 192.84 292.965C191.927 293.88 191.413 295.119 191.411 296.411C191.416 297.702 191.93 298.938 192.843 299.851C193.756 300.764 194.992 301.279 196.283 301.283H302.745C304.036 301.279 305.272 300.764 306.185 299.851C307.098 298.938 307.612 297.702 307.617 296.411C307.615 295.119 307.101 293.88 306.188 292.965C305.275 292.051 304.037 291.535 302.745 291.531Z" fill="#407BFF"/>
<path d="M302.745 124.253H196.283C194.992 124.257 193.756 124.772 192.843 125.685C191.93 126.598 191.416 127.834 191.411 129.125C191.416 130.416 191.93 131.652 192.843 132.565C193.756 133.478 194.992 133.993 196.283 133.997H302.745C304.036 133.993 305.272 133.478 306.185 132.565C307.098 131.652 307.612 130.416 307.617 129.125C307.612 127.834 307.098 126.598 306.185 125.685C305.272 124.772 304.036 124.257 302.745 124.253Z" fill="#407BFF"/>
<path d="M163.489 294.571L157.567 292.648L161.247 278.678L167.169 280.602L163.489 294.571Z" fill="#FF8B7B"/>
<path d="M157.475 291.858L164.128 294.017C164.24 294.05 164.335 294.125 164.393 294.227C164.451 294.329 164.467 294.449 164.438 294.563L163.052 299.939C162.964 300.216 162.769 300.446 162.511 300.58C162.253 300.714 161.952 300.74 161.675 300.653C159.373 299.863 158.315 299.367 155.383 298.418C153.577 297.83 147.647 296.301 145.16 295.495C142.674 294.689 143.539 292.253 144.665 292.37C149.705 292.899 154.241 292.664 156.341 291.891C156.705 291.755 157.104 291.743 157.475 291.858Z" fill="#263238"/>
<path opacity="0.2" d="M167.168 280.61L161.246 278.678L159.348 285.886L165.278 287.809L167.168 280.61Z" fill="black"/>
<path d="M183.355 139.205C183.355 139.205 172.729 188.387 170.234 206.069C167.504 225.431 157.248 283.576 157.248 283.576L168.244 286.616C168.244 286.616 183.481 230.227 187.933 211.403C192.763 190.966 205.573 139.163 205.573 139.163L183.355 139.205Z" fill="#407BFF"/>
<path opacity="0.3" d="M196.493 155.333C192.293 164.858 190.218 185.573 191.848 195.107C194.821 182.885 198.4 168.353 201.163 157.172C200.231 153.93 198.685 150.36 196.493 155.333Z" fill="black"/>
<path d="M168.521 286.835L156.744 283.592L156.979 278.796L170.235 283.374L168.521 286.835Z" fill="#263238"/>
<path d="M155.039 292.211C155.587 292.37 156.15 292.472 156.719 292.513C156.747 292.515 156.775 292.508 156.8 292.495C156.824 292.482 156.845 292.462 156.859 292.437C156.873 292.413 156.88 292.385 156.879 292.357C156.878 292.329 156.869 292.301 156.853 292.278C156.702 292.085 155.4 290.396 154.585 290.447C154.491 290.451 154.4 290.48 154.321 290.53C154.242 290.58 154.176 290.65 154.132 290.732C154.047 290.854 153.997 290.996 153.985 291.143C153.973 291.291 154.001 291.439 154.064 291.572C154.303 291.894 154.648 292.121 155.039 292.211ZM156.374 292.211C155.249 292.076 154.476 291.791 154.291 291.429C154.253 291.344 154.238 291.25 154.248 291.157C154.258 291.064 154.294 290.975 154.35 290.9C154.371 290.86 154.403 290.826 154.441 290.801C154.479 290.776 154.523 290.761 154.568 290.757C155.005 290.707 155.828 291.53 156.374 292.185V292.211Z" fill="#263238"/>
<path d="M156.66 292.505H156.727C156.751 292.5 156.774 292.488 156.793 292.472C156.812 292.456 156.827 292.436 156.836 292.412C156.836 292.345 157.55 290.682 157.139 289.892C157.087 289.793 157.014 289.707 156.923 289.641C156.833 289.576 156.728 289.532 156.618 289.514C156.499 289.479 156.371 289.484 156.255 289.53C156.139 289.575 156.042 289.659 155.979 289.766C155.635 290.371 156.114 291.892 156.593 292.438L156.66 292.505ZM156.66 289.842C156.716 289.858 156.768 289.886 156.813 289.924C156.858 289.961 156.894 290.008 156.92 290.06C157.061 290.737 156.981 291.44 156.693 292.068C156.287 291.439 156.134 290.68 156.265 289.943C156.265 289.867 156.383 289.783 156.593 289.825L156.66 289.842Z" fill="#263238"/>
<path d="M194.662 92.5092C194.343 93.2652 194.074 93.8364 193.78 94.4747C193.486 95.1131 193.167 95.7011 192.856 96.3059C192.234 97.5239 191.579 98.7083 190.899 99.8927C189.524 102.271 188.01 104.565 186.363 106.764C184.677 109.037 182.809 111.17 180.777 113.14C178.612 115.271 176.157 117.086 173.486 118.532L173.276 118.642C172.936 118.817 172.574 118.947 172.2 119.028C170.287 119.426 168.306 119.348 166.43 118.801C164.871 118.335 163.388 117.644 162.028 116.752C159.746 115.217 157.698 113.361 155.946 111.241C154.319 109.308 152.84 107.255 151.52 105.101C150.216 102.983 149.057 100.78 148.05 98.5068C147.791 97.9054 147.758 97.2307 147.955 96.6066C148.153 95.9824 148.57 95.4505 149.128 95.1085C149.687 94.7664 150.35 94.6373 150.996 94.7446C151.642 94.8519 152.227 95.1885 152.645 95.6927L152.729 95.7935C154.115 97.4735 155.619 99.2627 157.131 100.892C158.604 102.515 160.169 104.052 161.818 105.496C163.275 106.817 164.896 107.946 166.64 108.856C167.292 109.191 167.991 109.423 168.714 109.544C169.119 109.62 169.537 109.585 169.924 109.444L168.639 109.939C170.375 108.769 171.958 107.386 173.351 105.823C174.868 104.12 176.271 102.318 177.551 100.43C178.878 98.4983 180.138 96.4739 181.323 94.3907C181.928 93.3575 182.507 92.3075 183.053 91.2407L183.893 89.6531C184.154 89.1407 184.439 88.5527 184.641 88.1411L184.691 88.0235C185.304 86.7313 186.398 85.7309 187.741 85.2372C189.083 84.7436 190.565 84.7962 191.869 85.3837C193.172 85.9712 194.193 87.0467 194.713 88.3791C195.232 89.7115 195.208 91.1944 194.645 92.5092H194.662Z" fill="#263238"/>
<path opacity="0.3" d="M180.928 103.916C183.565 96.9107 189.168 96.7931 191.596 98.6495C191.419 98.9771 191.235 99.3047 191.05 99.6323C189.732 101.926 188.288 104.144 186.724 106.277C185.119 108.471 183.353 110.543 181.44 112.476C180.835 113.072 180.214 113.66 179.567 114.231C179.345 110.737 179.807 107.233 180.928 103.916Z" fill="black"/>
<path d="M147.84 98.9435L142.38 99.1451L143.741 93.3071C145.62 93.4004 147.486 93.6818 149.31 94.1471C149.642 94.2477 149.946 94.425 150.196 94.6647C150.447 94.9045 150.638 95.1999 150.753 95.5271C150.869 95.8543 150.905 96.204 150.86 96.548C150.815 96.892 150.69 97.2206 150.494 97.5071C150.199 97.9413 149.804 98.2984 149.342 98.5483C148.88 98.7982 148.365 98.9337 147.84 98.9435Z" fill="#FF8B7B"/>
<path d="M150.897 94.0127C150.362 93.5878 149.748 93.2711 149.091 93.0803C148.638 95.4659 145.731 99.4895 145.731 99.4895H148.008C148.301 99.4904 148.59 99.4269 148.856 99.3035C149.121 99.1801 149.357 98.9999 149.545 98.7755L151.141 96.8603C151.316 96.6591 151.448 96.4248 151.531 96.1714C151.614 95.918 151.644 95.6506 151.622 95.385C151.599 95.1194 151.523 94.8611 151.399 94.6254C151.274 94.3897 151.104 94.1813 150.897 94.0127Z" fill="#407BFF"/>
<path d="M138.197 96.4571L139.726 92.3411L143.724 93.3155L142.364 99.1451L138.197 96.4571Z" fill="#FF8B7B"/>
<path d="M206.85 297.293H200.626L200.407 282.87H206.632L206.85 297.293Z" fill="#FF8B7B"/>
<path d="M200.299 296.57H207.296C207.354 296.568 207.413 296.577 207.467 296.598C207.522 296.618 207.573 296.649 207.616 296.689C207.658 296.729 207.693 296.776 207.717 296.83C207.742 296.883 207.756 296.94 207.758 296.999L208.094 302.534C208.094 302.826 207.979 303.105 207.775 303.313C207.571 303.52 207.293 303.639 207.002 303.643C204.566 303.601 203.407 303.458 200.282 303.458C198.392 303.458 192.067 303.652 189.454 303.652C186.842 303.652 186.934 301.064 188.018 300.829C192.991 299.788 197.426 298.309 199.181 296.957C199.497 296.701 199.892 296.565 200.299 296.57Z" fill="#263238"/>
<path opacity="0.2" d="M206.64 282.878H200.407L200.525 290.312H206.749L206.64 282.878Z" fill="black"/>
<path d="M195.502 139.205C195.502 139.205 193.125 193.309 194.133 211.142C195.242 230.664 197.56 288.515 197.56 288.515H208.967C208.967 288.515 211.84 232.235 212.529 212.915C213.276 191.915 216.662 139.205 216.662 139.205H195.502Z" fill="#407BFF"/>
<path d="M209.429 288.515H197.106L196.165 283.928L209.765 284.609L209.429 288.515Z" fill="#263238"/>
<path d="M198.089 297.654C198.655 297.64 199.218 297.567 199.769 297.436C199.795 297.427 199.819 297.411 199.838 297.391C199.857 297.37 199.871 297.345 199.878 297.318C199.881 297.291 199.877 297.264 199.867 297.239C199.857 297.214 199.84 297.192 199.819 297.175C199.617 297.032 197.853 295.831 197.089 296.134C197.004 296.168 196.929 296.223 196.87 296.293C196.812 296.363 196.771 296.447 196.753 296.537C196.715 296.673 196.711 296.817 196.744 296.955C196.776 297.093 196.843 297.221 196.938 297.326C197.268 297.573 197.678 297.69 198.089 297.654ZM199.349 297.226C198.231 297.444 197.417 297.41 197.123 297.125C197.062 297.054 197.021 296.969 197.003 296.878C196.986 296.786 196.992 296.692 197.022 296.604C197.028 296.559 197.046 296.517 197.074 296.481C197.102 296.446 197.139 296.419 197.181 296.402C197.593 296.243 198.626 296.764 199.349 297.226Z" fill="#263238"/>
<path d="M199.718 297.436C199.74 297.443 199.764 297.443 199.786 297.436C199.807 297.424 199.825 297.407 199.838 297.386C199.851 297.366 199.859 297.342 199.861 297.318C199.861 297.242 200.004 295.453 199.374 294.848C199.294 294.77 199.197 294.711 199.091 294.676C198.985 294.641 198.872 294.631 198.761 294.647C198.638 294.651 198.52 294.697 198.426 294.776C198.331 294.855 198.266 294.963 198.24 295.084C198.089 295.764 199.021 297.066 199.643 297.436C199.667 297.443 199.694 297.443 199.718 297.436ZM198.878 294.916C198.936 294.914 198.993 294.925 199.047 294.946C199.1 294.968 199.149 295 199.189 295.042C199.536 295.641 199.68 296.336 199.601 297.024C199.063 296.562 198.442 295.571 198.534 295.126C198.534 295.042 198.601 294.941 198.811 294.916H198.878Z" fill="#263238"/>
<path d="M219.777 88.9896C219.87 88.4645 219.857 87.9259 219.737 87.4062C219.617 86.8865 219.394 86.3963 219.08 85.9649C218.766 85.5336 218.369 85.17 217.911 84.8959C217.454 84.6218 216.945 84.4428 216.417 84.3696H216.35C214.342 84.0756 211.822 83.7732 209.353 83.6556C204.639 83.3866 199.913 83.3866 195.199 83.6556C193.023 83.8572 190.898 84.2184 189.201 84.546H189.134C188.073 84.7603 187.091 85.2599 186.293 85.9911C185.495 86.7224 184.912 87.6574 184.606 88.6956C182.574 95.5416 180.146 109.519 183.321 139.196H216.627C216.862 136.223 216.199 126.546 216.686 114.223C217.173 105.754 218.205 97.3256 219.777 88.9896Z" fill="#263238"/>
<path opacity="0.3" d="M219.458 90.8208C218.769 94.8024 217.921 100.22 217.333 105.941C217.333 105.941 214.292 99.9768 213.738 94.878C213.183 89.7792 217.56 89.3928 219.458 90.8208Z" fill="black"/>
<g opacity="0.2">
<path d="M197.123 91.6106C197.054 91.6074 196.987 91.5818 196.934 91.5377C196.881 91.4936 196.843 91.4334 196.827 91.3661C196.811 91.2988 196.817 91.2281 196.845 91.1647C196.872 91.1012 196.92 91.0484 196.98 91.0142L207.362 85.6298C207.436 85.5939 207.521 85.5878 207.599 85.6128C207.677 85.6379 207.743 85.6921 207.782 85.7642C207.821 85.8389 207.828 85.9258 207.803 86.006C207.778 86.0863 207.722 86.1533 207.648 86.1926L197.265 91.5602C197.222 91.5861 197.173 91.6032 197.123 91.6106Z" fill="white"/>
<path d="M201.877 92.0976C201.836 92.0993 201.795 92.0919 201.757 92.076C201.719 92.06 201.686 92.0358 201.658 92.0052L195.963 86.352C195.907 86.2915 195.876 86.212 195.876 86.1294C195.876 86.0469 195.907 85.9674 195.963 85.9068C196.023 85.8489 196.103 85.8164 196.186 85.8164C196.269 85.8164 196.349 85.8489 196.408 85.9068L202.095 91.5684C202.153 91.628 202.186 91.7079 202.186 91.791C202.186 91.8742 202.153 91.954 202.095 92.0136C202.066 92.0414 202.032 92.0632 201.994 92.0776C201.957 92.092 201.917 92.0988 201.877 92.0976Z" fill="white"/>
<path d="M209.378 83.6473C204.667 83.3783 199.944 83.3783 195.233 83.6473H194.998C194.883 84.0796 194.856 84.5303 194.918 84.9731C194.98 85.4159 195.13 85.8419 195.359 86.2261C196.148 87.4861 197.803 88.1917 200.29 88.3261H201.222C207.942 88.3261 210.538 84.2437 210.647 84.0673L210.882 83.6893L209.378 83.6473Z" fill="white"/>
</g>
<path d="M195.905 83.5968C200.021 82.6224 200.743 80.0772 200.466 77.28C200.401 76.5794 200.291 75.8837 200.138 75.1968L205.296 70.9128L209.084 67.7712C208.034 72.3324 206.85 80.64 209.924 83.6808C209.924 83.6808 207.404 87.8808 200.323 87.5112C194.384 87.1836 195.905 83.5968 195.905 83.5968Z" fill="#FF8B7B"/>
<path opacity="0.2" d="M200.139 75.1968C200.292 75.8837 200.401 76.5794 200.466 77.28C202.39 76.8936 204.96 74.844 205.229 72.8784C205.324 72.2277 205.346 71.5685 205.296 70.9128L200.139 75.1968Z" fill="black"/>
<path d="M197.4 53.3401C194.603 55.0201 195.048 59.2201 194.292 62.2273C196.073 62.4037 198.878 59.2369 198.878 59.2369L200.558 54.4237L197.4 53.3401Z" fill="#263238"/>
<path d="M212.276 61.7904C210.487 67.7208 209.756 71.274 205.959 73.752C204.738 74.5685 203.317 75.0357 201.85 75.1029C200.383 75.1701 198.925 74.8348 197.634 74.1333C196.344 73.4318 195.269 72.3908 194.528 71.1228C193.786 69.8549 193.405 68.4083 193.427 66.9396C193.427 61.2864 196.333 52.5336 202.818 51.324C204.216 51.0253 205.667 51.0995 207.027 51.5392C208.387 51.9789 209.608 52.7686 210.566 53.829C211.524 54.8894 212.187 56.1833 212.487 57.5807C212.787 58.9781 212.714 60.4299 212.276 61.7904Z" fill="#FF8B7B"/>
<path d="M206.69 66.822C210.89 61.95 205.64 59.5476 209.932 56.1624C205.102 56.3892 197.147 56.0448 195.728 52.7352C194.308 49.4256 198.676 44.94 202.313 44.52C206.513 44.0328 205.606 49.2324 205.606 49.2324C205.606 49.2324 221.675 48.2328 216.577 55.1124C220.441 54.8772 219.374 61.1268 212.654 66.402C210.965 66.9648 206.69 66.822 206.69 66.822Z" fill="#263238"/>
<path d="M215.611 55.1964C215.611 55.1964 218.921 54.2136 218.812 51.5928C220.005 52.416 220.131 54.9192 215.611 55.1964Z" fill="#263238"/>
<path d="M213.26 67.9812C212.293 69.1754 210.942 69.9976 209.438 70.308C207.531 70.6524 207.086 68.8884 208.035 67.1664C208.875 65.6208 210.916 63.5796 212.63 64.008C214.343 64.4364 214.478 66.4776 213.26 67.9812Z" fill="#FF8B7B"/>
<path d="M202.709 61.6393C202.591 62.1265 202.239 62.4793 201.911 62.4037C201.583 62.3281 201.424 61.8913 201.541 61.4041C201.659 60.9169 202.012 60.5641 202.331 60.6313C202.65 60.6985 202.827 61.1437 202.709 61.6393Z" fill="#263238"/>
<path d="M197.14 60.522C197.022 61.0092 196.669 61.362 196.35 61.2948C196.031 61.2276 195.855 60.7824 195.972 60.2952C196.09 59.808 196.443 59.4552 196.762 59.5224C197.081 59.5896 197.257 60.0348 197.14 60.522Z" fill="#263238"/>
<path d="M198.853 61.1184C197.905 62.5013 196.775 63.7501 195.493 64.8312C195.779 65.1391 196.128 65.3806 196.517 65.5388C196.906 65.697 197.325 65.768 197.744 65.7468L198.853 61.1184Z" fill="#FF5652"/>
<path d="M199.458 67.4604C200.04 67.515 200.626 67.4508 201.182 67.2718C201.738 67.0927 202.252 66.8025 202.692 66.4188C202.706 66.4062 202.718 66.3907 202.726 66.3733C202.734 66.3559 202.738 66.3371 202.738 66.318C202.738 66.2989 202.734 66.2801 202.726 66.2627C202.718 66.2453 202.706 66.2298 202.692 66.2172C202.664 66.19 202.626 66.1748 202.587 66.1748C202.548 66.1748 202.51 66.19 202.482 66.2172C201.999 66.6277 201.428 66.9209 200.813 67.0739C200.198 67.2269 199.556 67.2356 198.937 67.0992C198.919 67.0956 198.899 67.0958 198.88 67.0998C198.862 67.1038 198.844 67.1115 198.828 67.1224C198.813 67.1334 198.799 67.1474 198.789 67.1636C198.779 67.1798 198.772 67.1979 198.769 67.2168C198.762 67.2558 198.77 67.2961 198.792 67.3291C198.814 67.3621 198.848 67.3851 198.887 67.3932L199.458 67.4604Z" fill="#263238"/>
<path d="M204.859 60.2784C204.905 60.2938 204.955 60.2938 205.002 60.2784C205.037 60.2631 205.069 60.2407 205.095 60.2127C205.121 60.1848 205.142 60.1518 205.155 60.1157C205.169 60.0796 205.175 60.0412 205.173 60.0027C205.171 59.9643 205.161 59.9267 205.144 59.892C204.964 59.4625 204.68 59.0844 204.318 58.7912C203.956 58.4981 203.527 58.2991 203.07 58.212C202.992 58.2023 202.913 58.2232 202.851 58.2702C202.788 58.3172 202.746 58.3867 202.734 58.464C202.729 58.5027 202.732 58.5419 202.743 58.5793C202.753 58.6168 202.771 58.6518 202.795 58.6823C202.82 58.7127 202.85 58.7381 202.884 58.7569C202.918 58.7757 202.955 58.7875 202.994 58.7916C203.35 58.8668 203.682 59.0267 203.963 59.2577C204.244 59.4888 204.465 59.7842 204.607 60.1188C204.631 60.165 204.668 60.2039 204.712 60.2319C204.756 60.2599 204.807 60.2759 204.859 60.2784Z" fill="#263238"/>
<path d="M195.762 57.1788C195.808 57.1952 195.856 57.1992 195.904 57.1903C195.951 57.1814 195.995 57.16 196.031 57.1284C196.321 56.8869 196.663 56.7164 197.031 56.6304C197.398 56.5443 197.781 56.5451 198.148 56.6328C198.185 56.6449 198.224 56.6496 198.263 56.6467C198.301 56.6438 198.339 56.6332 198.374 56.6157C198.409 56.5981 198.44 56.5739 198.465 56.5444C198.49 56.5149 198.51 56.4807 198.522 56.4438C198.534 56.4068 198.539 56.3678 198.536 56.329C198.533 56.2903 198.522 56.2524 198.505 56.2177C198.487 56.183 198.463 56.1521 198.433 56.1267C198.404 56.1014 198.37 56.0821 198.333 56.07C197.873 55.9564 197.393 55.9511 196.931 56.0546C196.469 56.1581 196.037 56.3675 195.67 56.6664C195.609 56.7144 195.569 56.7846 195.56 56.8618C195.55 56.9389 195.572 57.0166 195.62 57.078C195.654 57.1275 195.704 57.1633 195.762 57.1788Z" fill="#263238"/>
<path d="M220.08 86.5955L220.777 87.5448L221.407 88.4352C221.827 89.0316 222.205 89.628 222.6 90.2244C223.364 91.4256 224.087 92.6436 224.784 93.87C226.181 96.3216 227.449 98.8451 228.581 101.43C229.169 102.707 229.673 104.034 230.21 105.336C230.748 106.638 231.202 107.99 231.613 109.351C232.498 112.06 233.228 114.816 233.797 117.608L233.864 117.928C233.988 118.491 233.999 119.074 233.896 119.642C233.794 120.21 233.58 120.752 233.268 121.237C232.186 122.898 230.902 124.419 229.446 125.765C227.949 127.137 226.249 128.27 224.406 129.125C222.587 129.972 220.64 130.512 218.644 130.721C217.667 130.821 216.683 130.838 215.704 130.771C215.216 130.771 214.729 130.679 214.242 130.603L213.503 130.46L212.663 130.25C212.564 130.226 212.479 130.164 212.425 130.078C212.372 129.992 212.355 129.887 212.377 129.788L213.536 124.916C213.536 124.874 213.755 124.866 213.889 124.832L214.351 124.74C214.67 124.673 214.981 124.597 215.3 124.513C215.923 124.345 216.532 124.131 217.123 123.875C218.268 123.405 219.34 122.774 220.307 122.002C222.198 120.445 223.71 118.477 224.725 116.248L224.196 119.876C223.474 117.499 222.709 115.147 221.785 112.82C220.861 110.494 219.853 108.209 218.753 105.958C217.652 103.706 216.476 101.48 215.208 99.3131C214.586 98.2295 213.931 97.1628 213.276 96.1044L212.276 94.542L211.781 93.7859L211.319 93.114L211.151 92.862C210.32 91.6779 209.993 90.2122 210.243 88.7873C210.493 87.3624 211.298 86.0951 212.482 85.2642C213.666 84.4332 215.132 84.1066 216.557 84.3563C217.982 84.606 219.249 85.4115 220.08 86.5955Z" fill="#263238"/>
<path d="M208.975 129.763L207.169 132.72L215.006 132.409C215.006 132.409 217.064 127.134 214.259 126.302L213.167 126.596C211.42 127.086 209.923 128.217 208.975 129.763Z" fill="#FF8B7B"/>
<path d="M212.2 125.622C211.636 126.004 211.151 126.492 210.772 127.058C212.906 128.218 215.88 132.166 215.88 132.166L216.568 129.998C216.656 129.719 216.681 129.423 216.642 129.133C216.603 128.843 216.5 128.565 216.342 128.318L215.04 126.218C214.897 125.987 214.709 125.787 214.487 125.631C214.265 125.475 214.014 125.366 213.748 125.31C213.483 125.254 213.208 125.253 212.942 125.307C212.676 125.36 212.424 125.468 212.2 125.622Z" fill="#407BFF"/>
<path d="M207.858 137.273L214.317 136.702L215.006 132.409L207.169 132.72L207.858 137.273Z" fill="#FF8B7B"/>
<path d="M128.57 34.7257L128.142 34.0033C129.373 33.2733 130.656 32.6333 131.98 32.0881L132.3 32.8693C131.012 33.3948 129.765 34.0153 128.57 34.7257Z" fill="#407BFF"/>
<path d="M116.307 49.5602L115.467 49.2746C117.458 43.7608 121.061 38.9729 125.807 35.5322L126.303 36.2126C121.706 39.5572 118.223 44.2083 116.307 49.5602Z" fill="#407BFF"/>
<path d="M142.968 84.9829C157.248 84.9829 168.824 73.4071 168.824 59.1277C168.824 44.8482 157.248 33.2725 142.968 33.2725C128.689 33.2725 117.113 44.8482 117.113 59.1277C117.113 73.4071 128.689 84.9829 142.968 84.9829Z" fill="#407BFF"/>
<path opacity="0.6" d="M164.565 59.1277C164.563 64.1661 162.8 69.0454 159.58 72.921C156.361 76.7965 151.887 79.4244 146.935 80.3497C141.982 81.275 136.861 80.4395 132.46 77.9878C128.058 75.5361 124.652 71.6226 122.831 66.9246C121.011 62.2266 120.89 57.0399 122.49 52.2623C124.09 47.4847 127.31 43.4168 131.593 40.7629C135.876 38.1091 140.952 37.0361 145.942 37.7299C150.933 38.4237 155.524 40.8406 158.92 44.5621C158.927 44.5591 158.934 44.5575 158.941 44.5575C158.948 44.5575 158.955 44.5591 158.962 44.5621C162.583 48.547 164.582 53.7431 164.565 59.1277Z" fill="white"/>
<path d="M164.564 59.1277C164.564 63.3257 163.341 67.4326 161.043 70.9462C158.746 74.4597 155.474 77.2275 151.629 78.911C147.783 80.5945 143.53 81.1208 139.39 80.4253C135.25 79.7299 131.403 77.8429 128.318 74.9953C124.547 70.8858 122.512 65.4766 122.639 59.9004C122.767 54.3242 125.046 49.0135 129.001 45.0803C132.956 41.1472 138.279 38.8967 143.856 38.8001C149.433 38.7035 154.831 40.7683 158.92 44.5621C158.926 44.5591 158.933 44.5575 158.941 44.5575C158.948 44.5575 158.955 44.5591 158.962 44.5621C162.583 48.5471 164.582 53.7431 164.564 59.1277Z" fill="white"/>
<path d="M142.968 60.3878C142.802 60.3881 142.638 60.3556 142.485 60.2921C142.333 60.2287 142.194 60.1356 142.077 60.0182L131.544 49.4846C131.42 49.3692 131.321 49.2301 131.252 49.0755C131.183 48.921 131.146 48.7541 131.143 48.585C131.14 48.4158 131.171 48.2477 131.234 48.0908C131.298 47.9339 131.392 47.7914 131.512 47.6718C131.631 47.5521 131.774 47.4578 131.931 47.3944C132.088 47.3311 132.256 47.2999 132.425 47.3029C132.594 47.3059 132.761 47.3429 132.915 47.4118C133.07 47.4807 133.209 47.58 133.324 47.7038L142.968 57.347L148.537 51.7778C148.776 51.5552 149.092 51.434 149.418 51.4398C149.744 51.4455 150.056 51.5778 150.287 51.8086C150.518 52.0395 150.65 52.3509 150.656 52.6774C150.661 53.0038 150.54 53.3197 150.318 53.5586L143.858 60.0182C143.621 60.2537 143.301 60.3866 142.968 60.3878Z" fill="#263238"/>
</svg>
