<svg width="500" height="272" viewBox="0 0 500 272" fill="none" xmlns="http://www.w3.org/2000/svg">
<path d="M111.006 74.8403L17.7471 120.784L109.607 221.917L202.866 175.973L111.006 74.8403Z" fill="#F5F5F5"/>
<path d="M154.674 171.19L153.619 176.013L107.255 171.092L108.311 166.268L154.674 171.19Z" fill="#E0E0E0"/>
<path d="M131.326 153.982L137.976 154.686L130.603 188.305L123.945 187.595L131.326 153.982Z" fill="#E0E0E0"/>
<path d="M88.662 111.256C88.7285 111.323 79.3861 116.018 67.7911 121.723C56.1961 127.428 46.7456 132.007 46.6791 131.934C46.6126 131.86 55.9551 127.171 67.55 121.46C79.145 115.749 88.554 111.182 88.662 111.256Z" fill="#E0E0E0"/>
<path d="M122.923 104.914C122.989 104.987 107.446 112.724 88.2126 122.2C68.979 131.676 53.3029 139.297 53.253 139.23C53.2032 139.163 68.713 131.413 87.9715 121.937C107.23 112.461 122.856 104.84 122.923 104.914Z" fill="#E0E0E0"/>
<path d="M129.797 112.48C129.863 112.553 114.32 120.297 95.0866 129.773C75.853 139.249 60.1769 146.87 60.1271 146.796C60.0772 146.723 75.6037 138.985 94.8455 129.503C114.087 120.022 129.73 112.407 129.797 112.48Z" fill="#E0E0E0"/>
<path d="M136.671 120.052C136.738 120.125 121.194 127.869 101.961 137.338C82.7274 146.808 67.0513 154.442 67.0513 154.368C67.0513 154.295 82.5196 146.551 101.761 137.075C121.003 127.599 136.605 119.978 136.671 120.052Z" fill="#E0E0E0"/>
<path d="M143.52 127.624C143.586 127.698 128.043 135.435 108.81 144.911C89.5761 154.387 73.9 162.008 73.8585 161.934C73.8169 161.861 89.3517 154.123 108.61 144.648C127.869 135.172 143.52 127.551 143.52 127.624Z" fill="#E0E0E0"/>
<path d="M422.855 142.606L344.532 181.191L421.677 266.124L500 227.539L422.855 142.606Z" fill="#F5F5F5"/>
<path d="M459.535 223.54L458.646 227.592L419.705 223.46L420.603 219.408L459.535 223.54Z" fill="#E0E0E0"/>
<path d="M439.927 209.087L445.513 209.681L439.32 237.912L433.727 237.319L439.927 209.087Z" fill="#E0E0E0"/>
<path d="M404.062 173.234C404.128 173.308 396.29 177.256 386.549 182.049C376.807 186.842 368.861 190.674 368.795 190.619C368.728 190.564 376.575 186.604 386.308 181.804C396.041 177.005 403.995 173.13 404.062 173.234Z" fill="#E0E0E0"/>
<path d="M432.863 167.878C432.929 167.952 419.888 174.465 403.771 182.416C387.655 190.368 374.464 196.771 374.397 196.697C374.331 196.624 387.372 190.111 403.489 182.153C419.605 174.195 432.771 167.805 432.863 167.878Z" fill="#E0E0E0"/>
<path d="M438.639 174.232C438.706 174.305 425.665 180.819 409.548 188.776C393.431 196.734 380.241 203.125 380.174 203.051C380.108 202.978 393.107 196.495 409.265 188.538C425.424 180.58 438.59 174.165 438.639 174.232Z" fill="#E0E0E0"/>
<path d="M444.407 180.58C444.474 180.653 431.424 187.167 415.316 195.124C399.208 203.082 386.009 209.473 385.942 209.399C385.876 209.326 398.917 202.819 415.034 194.855C431.15 186.891 444.349 180.519 444.407 180.58Z" fill="#E0E0E0"/>
<path d="M450.226 186.952C450.292 187.026 437.251 193.533 421.134 201.49C405.018 209.448 391.827 215.839 391.761 215.772C391.694 215.704 404.735 209.185 420.852 201.227C436.968 193.27 450.118 186.879 450.226 186.952Z" fill="#E0E0E0"/>
<path d="M298.944 78.5608L213.484 44.8984L146.18 137.573L231.64 171.236L298.944 78.5608Z" fill="#F5F5F5"/>
<path d="M217.013 142.242L211.594 143.607L197.83 115.589L203.257 114.218L217.013 142.242Z" fill="#E0E0E0"/>
<path d="M225.325 122.139L227.303 126.161L189.517 135.692L187.539 131.67L225.325 122.139Z" fill="#E0E0E0"/>
<path d="M252.172 80.8016C252.106 80.8934 243.445 77.5757 232.814 73.3948C222.183 69.2139 213.63 65.7431 213.697 65.6513C213.763 65.5595 222.432 68.8772 233.063 73.0581C243.694 77.239 252.239 80.7037 252.172 80.8016Z" fill="#E0E0E0"/>
<path d="M272.686 97.4704C272.619 97.5622 258.273 92.004 240.644 85.0624C223.014 78.1208 208.784 72.4157 208.851 72.3239C208.917 72.2321 223.255 77.7841 240.885 84.7319C258.514 91.6796 272.752 97.3786 272.686 97.4704Z" fill="#E0E0E0"/>
<path d="M267.648 104.406C267.582 104.498 253.236 98.9457 235.606 91.998C217.977 85.0502 203.747 79.3512 203.814 79.2594C203.88 79.1676 218.218 84.7258 235.847 91.6674C253.477 98.609 267.715 104.314 267.648 104.406Z" fill="#E0E0E0"/>
<path d="M262.612 111.341C262.545 111.433 248.199 105.881 230.57 98.9394C212.94 91.9977 198.711 86.311 198.777 86.2008C198.844 86.0906 213.181 91.6611 230.811 98.6027C248.44 105.544 262.678 111.249 262.612 111.341Z" fill="#E0E0E0"/>
<path d="M257.575 118.277C257.508 118.369 243.162 112.817 225.533 105.875C207.903 98.9333 193.665 93.2282 193.74 93.1364C193.815 93.0446 208.144 98.5966 225.774 105.538C243.403 112.48 257.641 118.185 257.575 118.277Z" fill="#E0E0E0"/>
<path opacity="0.2" d="M258.015 0H255.871V26.9217H258.015V0Z" fill="black"/>
<path d="M206.881 59.4936H307.005C307.005 59.4936 297.762 26.9341 256.187 26.9341C219.207 26.9341 206.881 59.4936 206.881 59.4936Z" fill="#840227"/>
<path d="M258.016 0H255.871V26.9217H258.016V0Z" fill="#840227"/>
<path d="M479.874 269.235C479.874 269.321 372.444 269.394 239.946 269.394C107.447 269.394 0 269.339 0 269.235C0 269.131 107.414 269.076 239.946 269.076C372.477 269.076 479.874 269.143 479.874 269.235Z" fill="#263238"/>
<path d="M26.564 230.897C27.9693 230.972 29.3397 231.254 30.5935 231.728C31.8474 232.201 32.9589 232.855 33.8618 233.652C35.657 235.254 36.9281 237.139 37.5771 239.161C38.9818 243.03 38.1174 247.602 36.6213 251.453C30.936 249.953 27.4201 245.484 25.8159 243.134C23.3224 239.424 21.8346 231.589 26.5391 230.891" fill="#840227"/>
<path d="M44.8092 256.148C43.9555 255.173 43.4673 254.049 43.3944 252.89C43.3214 251.731 43.6661 250.578 44.3937 249.549C45.144 248.53 46.1625 247.631 47.3898 246.905C48.6171 246.178 50.0286 245.639 51.5418 245.319C52.9299 245.001 54.5424 244.873 55.7476 245.466C56.2909 245.769 56.714 246.173 56.9728 246.637C57.2315 247.101 57.3165 247.608 57.2188 248.105C57.0006 249.099 56.4268 250.033 55.5564 250.81C52.7886 253.571 49.4306 255.866 44.7511 256.148" fill="#840227"/>
<path d="M45.4409 269.082C45.3176 268.822 45.2312 268.554 45.1832 268.28C45.0336 267.705 44.8341 266.964 44.5931 266.077C43.847 263.646 43.6393 261.143 43.978 258.664C44.3699 256.172 45.6583 253.803 47.71 251.802C48.3369 251.203 49.0597 250.663 49.8628 250.192C50.081 250.064 50.3085 249.946 50.5444 249.837C50.6194 249.791 50.7035 249.754 50.7937 249.727C49.7423 250.388 48.7818 251.124 47.9261 251.924C45.9826 253.928 44.7589 256.261 44.3687 258.707C43.8367 261.559 44.4934 264.173 44.8757 266.052C45.0752 266.989 45.2414 267.748 45.3328 268.274C45.3983 268.541 45.4345 268.811 45.4409 269.082Z" fill="#263238"/>
<path d="M28.3931 236.792C28.488 236.889 28.5662 236.993 28.6258 237.104C28.7754 237.349 28.9749 237.655 29.2076 238.041C29.7146 238.855 30.4212 240.036 31.2773 241.499C32.9895 244.431 35.2836 248.508 37.6774 253.05C40.0712 257.592 42.1076 261.737 43.4956 264.754C44.2105 266.26 44.7674 267.484 45.158 268.335C45.3326 268.739 45.4655 269.064 45.5736 269.315C45.6329 269.427 45.6747 269.544 45.6983 269.664C45.614 269.56 45.547 269.449 45.4988 269.333C45.3741 269.088 45.2162 268.77 45.0084 268.372L43.2546 264.822C41.7668 261.828 39.6888 257.69 37.3033 253.154C34.9179 248.618 32.657 244.529 31.0113 241.579C30.1801 240.128 29.5401 238.947 29.0663 238.084C28.8502 237.692 28.6757 237.38 28.5427 237.129C28.4802 237.02 28.4302 236.907 28.3931 236.792Z" fill="#263238"/>
<path d="M38.683 260.524C36.9727 258.427 34.6092 256.66 31.788 255.369C28.9667 254.078 25.7687 253.3 22.4583 253.099C20.796 253.014 18.7513 253.222 18.0032 254.324C17.2551 255.425 18.2525 256.772 19.3996 257.666C21.8366 259.543 24.9739 260.848 28.416 261.414C31.858 261.981 35.4507 261.784 38.7412 260.849" fill="#840227"/>
<path d="M25.0186 256.417C25.371 256.404 25.7243 256.414 26.0742 256.448C26.484 256.464 26.892 256.499 27.296 256.552C27.7698 256.619 28.3267 256.656 28.9085 256.778C29.5589 256.88 30.2001 257.01 30.8285 257.17C31.5566 257.342 32.27 257.547 32.9647 257.782C34.5626 258.309 36.074 258.968 37.4697 259.747C38.8493 260.544 40.0989 261.456 41.1934 262.465C41.666 262.904 42.1018 263.364 42.4983 263.842C42.8567 264.255 43.1842 264.682 43.4791 265.122C43.7289 265.479 43.9509 265.847 44.1441 266.223C44.3107 266.502 44.4523 266.788 44.568 267.08C44.6911 267.325 44.7829 267.577 44.8423 267.833C44.7508 267.833 44.3519 266.78 43.2298 265.213C42.9242 264.792 42.5885 264.384 42.2241 263.989C41.819 263.525 41.3806 263.078 40.9108 262.649C38.7368 260.67 35.9643 259.094 32.8151 258.045C32.0919 257.813 31.4021 257.592 30.7288 257.433C30.1107 257.267 29.4809 257.126 28.842 257.011C26.5147 256.539 25.0103 256.484 25.0186 256.417Z" fill="#263238"/>
<path d="M402.317 64.5677C399.873 64.9778 398.685 67.0529 398.452 68.8893C398.219 70.7258 398.535 72.6723 397.488 74.3496C396.307 76.235 393.49 77.6306 393.398 79.7058C393.34 80.9729 394.362 82.1543 394.313 83.4337C394.229 85.5149 391.354 87.1065 391.196 89.1633C391.088 90.663 392.442 92.0954 392.118 93.5768C391.869 94.7276 390.647 95.6335 390.132 96.7354C389.109 98.9391 391.162 101.357 393.831 102.594C395.325 103.286 397.007 103.729 398.759 103.893C400.51 104.056 402.289 103.936 403.971 103.541C405.653 103.146 407.198 102.485 408.497 101.604C409.796 100.724 410.819 99.645 411.493 98.4432C412.973 95.7988 412.648 92.8177 412.324 89.9713C411.327 81.0912 410.584 72.199 410.097 63.2944" fill="#263238"/>
<path d="M395.219 95.8969C395.722 95.6668 396.114 95.3264 396.341 94.9236C396.581 94.4446 396.678 93.933 396.624 93.4239C396.533 92.749 396.329 92.0849 396.017 91.4467C395.62 90.6445 395.472 89.7868 395.585 88.937C395.793 87.982 396.724 87.1985 397.563 86.4272C398.015 86.0497 398.393 85.6273 398.685 85.1723C398.978 84.7122 399.026 84.1879 398.818 83.7032C398.386 82.7054 397.056 81.9709 396.449 80.8139C396.164 80.2412 396.118 79.6188 396.316 79.0265C396.505 78.4712 396.784 77.9347 397.148 77.4288C397.849 76.5177 398.407 75.5503 398.81 74.5457C399.392 72.6052 399.117 70.7504 399.516 69.2262C399.738 68.0054 400.473 66.8665 401.619 65.9696C401.944 65.7281 402.313 65.5219 402.717 65.3575C402.855 65.3041 403.004 65.265 403.157 65.2412C402.636 65.4524 402.158 65.7161 401.736 66.0247C400.674 66.9306 400.005 68.05 399.816 69.2385C399.67 70.0503 399.592 70.8681 399.583 71.687C399.58 72.6508 399.452 73.6121 399.201 74.5579C398.804 75.5856 398.246 76.5758 397.538 77.5084C396.915 78.4695 396.341 79.5958 396.89 80.6487C397.439 81.7015 398.76 82.43 399.267 83.5563C399.496 84.1127 399.44 84.7117 399.109 85.2397C398.785 85.7404 398.365 86.2042 397.862 86.617C397.031 87.3883 396.125 88.1228 395.926 88.9798C395.809 89.7927 395.94 90.6144 396.308 91.3855C396.605 92.0435 396.789 92.7262 396.857 93.4178C396.898 93.9504 396.77 94.4828 396.483 94.9726C396.304 95.2797 396.017 95.546 395.651 95.7439C395.521 95.814 395.375 95.8659 395.219 95.8969Z" fill="#455A64"/>
<path d="M388.719 110.411L381.238 126.326L349.953 127.55L344.733 136.12L377.398 138.569C378.942 139.035 380.597 139.267 382.266 139.249C383.934 139.231 385.58 138.964 387.104 138.465C388.628 137.965 389.999 137.244 391.134 136.343C392.268 135.442 393.144 134.382 393.706 133.225L402.425 115.302L388.719 110.411Z" fill="#B78876"/>
<path d="M453.394 260.586C453.394 260.586 430.47 206.951 429.979 205.212C429.539 203.633 438.291 165.038 439.405 155.017L408.427 155.868V156.094L395.261 156.633L407.047 266.279H421.302L419.889 229.887C428.683 247.266 441.283 264.981 441.283 264.981L453.394 260.586Z" fill="#B78876"/>
<path d="M420.47 242.944C420.47 242.614 420.295 230.75 420.295 230.75C420.121 231.46 414.835 220.454 414.959 219.787C415.026 219.438 420.47 242.944 420.47 242.944Z" fill="#A36957"/>
<path d="M414.361 214.572C414.288 214.79 414.257 215.015 414.269 215.239C414.223 215.851 414.223 216.464 414.269 217.075C414.269 217.461 414.344 217.877 414.411 218.33C414.477 218.783 414.569 219.261 414.71 219.757C415.005 220.839 415.397 221.907 415.882 222.952C416.912 225.174 418.06 227.114 418.866 228.522C419.248 229.134 419.581 229.716 419.863 230.181C419.965 230.398 420.105 230.603 420.279 230.793C420.234 230.582 420.15 230.376 420.029 230.181C419.838 229.777 419.547 229.196 419.198 228.479C418.467 227.047 417.37 225.088 416.347 222.891C415.864 221.861 415.467 220.81 415.159 219.744C415.009 219.255 414.909 218.783 414.818 218.343C414.727 217.902 414.66 217.486 414.618 217.118C414.519 216.359 414.477 215.747 414.452 215.319C414.468 215.068 414.437 214.817 414.361 214.572Z" fill="#A36957"/>
<path d="M406.781 266.836V265.85L421.385 265.379L421.426 269.45L420.528 269.492C416.514 269.664 400.123 270.166 397.447 269.572C394.446 268.911 406.781 266.836 406.781 266.836Z" fill="#455A64"/>
<path d="M421.617 269.205C421.534 269.209 421.451 269.209 421.368 269.205L420.653 269.241L418.01 269.327C415.782 269.394 412.699 269.456 409.299 269.468C405.9 269.48 402.808 269.437 400.572 269.388L397.937 269.309H397.214H396.964C397.047 269.304 397.131 269.304 397.214 269.309H397.937L400.58 269.345C402.808 269.345 405.891 269.394 409.291 269.382C412.69 269.37 415.782 269.327 418.01 269.284L420.653 269.235H421.617V269.205Z" fill="#263238"/>
<path d="M402.018 269.547C401.897 269.227 401.729 268.917 401.519 268.623C401.256 268.352 400.952 268.103 400.613 267.882C401.067 268.002 401.444 268.242 401.669 268.556C401.944 268.844 402.068 269.197 402.018 269.547Z" fill="#263238"/>
<path d="M406.324 267.938C406.324 267.938 406.082 267.772 405.866 267.528C405.65 267.283 405.517 267.068 405.559 267.05C405.6 267.032 405.8 267.209 406.016 267.454C406.232 267.699 406.365 267.919 406.324 267.938Z" fill="#263238"/>
<path d="M407.504 267.503C407.504 267.534 407.238 267.417 406.989 267.252C406.739 267.087 406.557 266.934 406.59 266.909C406.623 266.885 406.856 266.995 407.105 267.16C407.355 267.325 407.537 267.448 407.504 267.503Z" fill="#263238"/>
<path d="M408.243 266.462C407.999 266.528 407.738 266.553 407.479 266.536C407.224 266.561 406.965 266.542 406.722 266.481C406.964 266.415 407.222 266.39 407.479 266.407C407.736 266.381 407.998 266.4 408.243 266.462Z" fill="#263238"/>
<path d="M408.493 265.752C408.245 265.871 407.957 265.935 407.662 265.936C407.379 265.964 407.092 265.934 406.831 265.85C407.105 265.816 407.383 265.8 407.662 265.801C407.936 265.765 408.214 265.749 408.493 265.752Z" fill="#263238"/>
<path d="M405.834 267.001C405.523 267.044 405.205 267.044 404.894 267.001C404.559 266.971 404.227 266.918 403.905 266.842C403.706 266.801 403.513 266.743 403.332 266.67C403.221 266.622 403.138 266.546 403.099 266.456C403.084 266.405 403.089 266.352 403.114 266.303C403.139 266.254 403.183 266.211 403.24 266.181C403.47 266.098 403.722 266.055 403.978 266.053C404.234 266.052 404.487 266.092 404.719 266.171C404.951 266.25 405.157 266.366 405.321 266.51C405.485 266.655 405.603 266.825 405.667 267.007C405.684 267.068 405.684 267.13 405.667 267.191C405.573 266.969 405.427 266.762 405.235 266.578C405.014 266.395 404.725 266.263 404.404 266.199C404.036 266.111 403.636 266.133 403.29 266.26C403.149 266.34 403.207 266.468 403.365 266.542C403.535 266.609 403.713 266.665 403.897 266.707C404.209 266.783 404.529 266.842 404.853 266.884C405.476 266.982 405.834 266.982 405.834 267.001Z" fill="#263238"/>
<path d="M405.592 267.038C405.471 266.895 405.43 266.724 405.476 266.56C405.506 266.38 405.595 266.208 405.734 266.058C405.812 265.956 405.923 265.87 406.059 265.808C406.194 265.746 406.348 265.71 406.507 265.703C406.601 265.719 406.683 265.761 406.737 265.82C406.791 265.879 406.813 265.951 406.798 266.021C406.777 266.131 406.723 266.236 406.64 266.327C406.513 266.479 406.366 266.621 406.199 266.75C406.055 266.872 405.872 266.966 405.667 267.025C405.667 267.025 405.85 266.903 406.108 266.683C406.257 266.556 406.388 266.419 406.498 266.272C406.623 266.125 406.715 265.862 406.498 265.832C406.282 265.801 406.033 265.991 405.892 266.125C405.759 266.258 405.669 266.411 405.626 266.572C405.592 266.726 405.581 266.882 405.592 267.038Z" fill="#263238"/>
<path d="M421.31 266.278C421.31 266.278 420.894 266.278 420.237 266.309C419.382 266.385 418.573 266.635 417.902 267.032C417.23 267.429 416.723 267.957 416.439 268.556C416.223 269.015 416.206 269.327 416.173 269.321C416.14 269.315 416.173 269.241 416.173 269.107C416.194 268.909 416.244 268.714 416.323 268.525C416.587 267.898 417.096 267.343 417.785 266.927C418.484 266.519 419.332 266.274 420.221 266.223C420.497 266.199 420.776 266.199 421.052 266.223C421.141 266.234 421.227 266.252 421.31 266.278Z" fill="#263238"/>
<path d="M414.319 268.348C413.622 268.467 412.907 268.519 412.191 268.501C411.48 268.527 410.767 268.482 410.072 268.366C410.072 268.329 411.019 268.366 412.191 268.366C413.363 268.366 414.311 268.311 414.319 268.348Z" fill="#263238"/>
<path d="M417.162 268.33C417.162 268.33 417.087 268.476 416.987 268.636C416.888 268.795 416.838 268.942 416.788 268.936C416.738 268.929 416.713 268.77 416.829 268.58C416.946 268.391 417.129 268.299 417.162 268.33Z" fill="#263238"/>
<path d="M418.234 267.344C418.234 267.344 418.176 267.478 418.027 267.589C417.877 267.699 417.727 267.772 417.686 267.748C417.644 267.723 417.744 267.613 417.894 267.497C418.043 267.381 418.193 267.313 418.234 267.344Z" fill="#263238"/>
<path d="M419.763 266.891C419.763 266.928 419.564 266.928 419.348 266.983C419.132 267.038 418.982 267.123 418.94 267.099C418.899 267.074 419.024 266.928 419.29 266.86C419.556 266.793 419.78 266.854 419.763 266.891Z" fill="#263238"/>
<path d="M420.852 266.67C420.852 266.707 420.794 266.762 420.669 266.793C420.545 266.823 420.437 266.83 420.42 266.793C420.403 266.756 420.487 266.701 420.603 266.67C420.719 266.64 420.836 266.64 420.852 266.67Z" fill="#263238"/>
<path d="M440.992 265.887L440.443 264.987L453.501 260.157L455.804 263.83L454.973 264.142C451.407 265.507 436.736 270.906 433.96 271.176C430.893 271.5 440.992 265.887 440.992 265.887Z" fill="#455A64"/>
<path d="M455.854 263.567L455.637 263.665L454.997 263.91L452.637 264.791C450.642 265.52 447.866 266.505 444.766 267.546C441.665 268.586 438.823 269.474 436.761 270.104L434.309 270.833L433.644 271.023C433.568 271.049 433.487 271.067 433.403 271.078L433.628 270.998L434.284 270.784L436.711 270.019C438.764 269.37 441.59 268.464 444.691 267.423C447.791 266.383 450.576 265.416 452.587 264.705L454.964 263.867L455.621 263.64L455.854 263.567Z" fill="#263238"/>
<path d="M438.191 269.792C437.903 269.534 437.577 269.3 437.218 269.095C436.829 268.925 436.413 268.789 435.98 268.691C436.457 268.686 436.925 268.789 437.32 268.986C437.716 269.183 438.019 269.464 438.191 269.792Z" fill="#263238"/>
<path d="M441.191 267.026C441.191 267.026 440.875 266.952 440.543 266.793C440.211 266.634 439.97 266.481 439.994 266.45C440.019 266.42 440.31 266.524 440.643 266.683C440.975 266.842 441.216 266.995 441.191 267.026Z" fill="#263238"/>
<path d="M442.006 266.278C442.006 266.309 441.724 266.278 441.399 266.205C441.075 266.132 440.834 266.04 440.842 266.003C441.053 265.988 441.264 266.014 441.458 266.076C441.773 266.132 442.023 266.217 442.006 266.278Z" fill="#263238"/>
<path d="M442.122 265.104C442.122 265.14 441.848 265.269 441.466 265.403C441.245 265.501 440.998 265.562 440.743 265.581C440.743 265.544 441.017 265.416 441.391 265.281C441.615 265.184 441.864 265.123 442.122 265.104Z" fill="#263238"/>
<path d="M441.957 264.381C441.957 264.381 441.716 264.626 441.283 264.803C441.038 264.926 440.748 264.99 440.452 264.987C440.69 264.869 440.944 264.769 441.209 264.687C441.616 264.522 441.915 264.35 441.957 264.381Z" fill="#263238"/>
<path d="M440.252 266.328C439.999 266.456 439.718 266.551 439.421 266.609C439.095 266.679 438.761 266.73 438.424 266.762C438.219 266.781 438.013 266.781 437.809 266.762C437.68 266.755 437.561 266.711 437.476 266.64C437.438 266.596 437.417 266.545 437.417 266.493C437.417 266.441 437.438 266.39 437.476 266.346C437.729 266.121 438.08 265.967 438.47 265.911C438.859 265.855 439.263 265.901 439.612 266.04C439.818 266.119 440 266.23 440.144 266.364C440.244 266.462 440.286 266.524 440.277 266.53C440.073 266.361 439.827 266.222 439.554 266.12C439.261 266.018 438.935 265.982 438.615 266.015C438.424 266.03 438.24 266.072 438.071 266.139C437.903 266.207 437.754 266.298 437.634 266.407C437.543 266.524 437.634 266.621 437.859 266.64C438.049 266.652 438.241 266.652 438.432 266.64C438.763 266.615 439.091 266.572 439.413 266.511C439.887 266.413 440.252 266.309 440.252 266.328Z" fill="#263238"/>
<path d="M440.02 266.431C439.835 266.334 439.704 266.191 439.654 266.027C439.581 265.855 439.564 265.673 439.604 265.495C439.619 265.377 439.673 265.264 439.764 265.167C439.854 265.069 439.976 264.991 440.12 264.938C440.327 264.889 440.81 265.201 440.843 265.317C440.876 265.434 440.602 265.372 440.585 265.47C440.558 265.644 440.502 265.815 440.419 265.978C440.358 266.136 440.244 266.279 440.086 266.395C440.086 266.395 440.186 266.229 440.302 265.954C440.362 265.791 440.404 265.626 440.427 265.458C440.427 265.287 440.427 265.023 440.161 265.066C439.895 265.109 439.82 265.348 439.762 265.519C439.712 265.678 439.712 265.844 439.762 266.003C439.831 266.151 439.917 266.294 440.02 266.431Z" fill="#263238"/>
<path d="M453.942 260.99C453.942 260.99 453.543 261.094 452.978 261.345C452.239 261.67 451.637 262.141 451.241 262.704C450.856 263.272 450.692 263.908 450.767 264.54C450.817 265.03 450.975 265.311 450.941 265.324C450.888 265.263 450.846 265.197 450.817 265.128C450.734 264.94 450.676 264.748 450.642 264.552C450.523 263.9 450.677 263.237 451.082 262.651C451.487 262.065 452.125 261.584 452.911 261.271C453.147 261.175 453.394 261.098 453.651 261.039C453.744 261.012 453.842 260.996 453.942 260.99Z" fill="#263238"/>
<path d="M448.714 264.993C447.542 265.594 446.233 266.033 444.849 266.291C444.849 266.254 445.722 266.01 446.786 265.679C447.85 265.348 448.689 264.963 448.714 264.993Z" fill="#263238"/>
<path d="M451.299 264.118C451.34 264.118 451.299 264.271 451.299 264.448C451.299 264.626 451.299 264.773 451.299 264.785C451.299 264.797 451.132 264.65 451.132 264.448C451.132 264.246 451.257 264.099 451.299 264.118Z" fill="#263238"/>
<path d="M451.722 262.894C451.764 262.894 451.722 263.034 451.673 263.181C451.623 263.328 451.498 263.438 451.456 263.426C451.415 263.414 451.456 263.285 451.506 263.138C451.556 262.991 451.673 262.881 451.722 262.894Z" fill="#263238"/>
<path d="M452.87 261.994C452.87 262.03 452.704 262.085 452.538 262.202C452.371 262.318 452.28 262.44 452.238 262.428C452.197 262.416 452.238 262.245 452.421 262.104C452.604 261.963 452.862 261.994 452.87 261.994Z" fill="#263238"/>
<path d="M453.743 261.492C453.743 261.492 453.743 261.59 453.643 261.657C453.543 261.725 453.452 261.761 453.419 261.737C453.385 261.712 453.419 261.639 453.518 261.572C453.618 261.504 453.71 261.468 453.743 261.492Z" fill="#263238"/>
<path d="M437.393 136.898L434.966 115.044L447.434 115.21C447.434 115.21 448.007 111.984 446.17 104.92C445.04 100.586 441.125 97.9291 436.728 96.3498V96.2886L436.346 96.2151C432.726 95.0184 428.861 94.2756 424.909 94.0176L409.573 94.1461C409.573 94.1461 397.862 93.0443 391.404 99.2207C388.91 101.59 381.172 117.805 381.172 117.805L399.583 124.331L397.862 115.338C397.862 115.338 398.211 121.857 399.342 123.908C399.965 125.059 401.835 128.634 401.835 128.634L401.594 139.42L437.393 136.898Z" fill="#840227"/>
<path d="M428.94 111.874L426.663 119.011H448.132L446.719 107.038L428.94 111.874Z" fill="#840227"/>
<path d="M448.132 119.011C447.194 118.884 446.243 118.814 445.289 118.803C443.527 118.729 441.133 118.662 438.407 118.674C435.681 118.687 433.279 118.772 431.516 118.87C430.563 118.895 429.615 118.981 428.682 119.127C429.634 119.183 430.59 119.183 431.541 119.127C433.295 119.084 435.697 119.035 438.407 119.029C441.117 119.023 443.519 119.029 445.281 119.06C446.231 119.099 447.185 119.083 448.132 119.011Z" fill="#263238"/>
<path d="M428.009 106.983C427.907 107.592 427.885 108.207 427.943 108.819C427.943 109.94 428.009 111.482 428.101 113.19C428.192 114.898 428.3 116.447 428.4 117.561C428.404 118.178 428.493 118.793 428.666 119.397C428.768 118.788 428.79 118.173 428.732 117.561C428.732 116.44 428.666 114.892 428.574 113.184C428.483 111.476 428.375 109.933 428.275 108.813C428.272 108.198 428.183 107.585 428.009 106.983Z" fill="#263238"/>
<g opacity="0.3">
<path d="M408.476 113.166C408.476 113.166 413.247 139.224 426.662 138.532C426.662 138.532 432.705 138.483 434.642 135.527V134.364L408.476 113.166Z" fill="black"/>
</g>
<g opacity="0.3">
<path d="M428.009 108.519L425.441 121.294L427.103 123.535L429.846 119.152L428.683 119.127L428.009 108.519Z" fill="black"/>
</g>
<path d="M401.76 128.646C401.601 128.455 401.478 128.249 401.394 128.034C401.187 127.636 400.912 127.055 400.563 126.326C399.731 124.428 399.045 122.497 398.51 120.541C397.977 118.585 397.638 116.603 397.496 114.61C397.446 113.845 397.43 113.226 397.446 112.773C397.425 112.552 397.445 112.33 397.505 112.112C397.571 112.112 397.621 113.055 397.795 114.561C398.029 116.536 398.41 118.499 398.934 120.443C399.549 122.721 400.289 124.759 400.854 126.222C401.12 126.901 401.345 127.483 401.527 127.96C401.642 128.181 401.72 128.412 401.76 128.646Z" fill="#263238"/>
<path d="M407.18 136.132C407.064 136.132 406.731 135.6 406.44 134.908C406.19 134.484 406.079 134.023 406.116 133.562C406.483 133.936 406.735 134.364 406.856 134.816C407.094 135.232 407.205 135.682 407.18 136.132Z" fill="#263238"/>
<path d="M409.033 136.035C408.404 134.807 408.378 133.456 408.958 132.215C409.023 132.851 409.023 133.489 408.958 134.125C409.049 134.759 409.074 135.397 409.033 136.035Z" fill="#263238"/>
<path d="M399.957 124.631C399.899 124.704 395.618 123.21 390.39 121.288C385.162 119.366 380.964 117.738 381.014 117.658C381.064 117.579 385.353 119.078 390.581 121.001C395.809 122.923 400.007 124.551 399.957 124.631Z" fill="#263238"/>
<path d="M407.503 96.2582C407.595 93.1608 407.62 89.9043 407.62 89.9043C407.62 89.9043 402.225 89.1391 401.286 83.9115C400.389 78.9287 402.899 67.2308 402.899 67.2308C410.778 65.0393 418.965 67.0288 424.36 71.73L423.022 96.8704C422.864 99.7902 419.331 102.018 415.092 101.872C410.803 101.718 407.412 99.2087 407.503 96.2582Z" fill="#B78876"/>
<path d="M402.483 76.5778C402.476 76.7494 402.558 76.9166 402.713 77.0451C402.867 77.1737 403.082 77.254 403.315 77.2695C403.433 77.2779 403.552 77.2685 403.664 77.2419C403.777 77.2153 403.882 77.172 403.971 77.1148C404.061 77.0575 404.133 76.9874 404.185 76.9087C404.236 76.8301 404.265 76.7446 404.27 76.6574C404.278 76.4864 404.195 76.3199 404.041 76.1924C403.886 76.0648 403.671 75.9858 403.439 75.9718C403.321 75.9585 403.2 75.9643 403.085 75.9887C402.97 76.0131 402.863 76.0555 402.772 76.1131C402.681 76.1706 402.609 76.2419 402.559 76.3222C402.509 76.4024 402.483 76.4896 402.483 76.5778Z" fill="#263238"/>
<path d="M402.151 75.7027C402.259 75.7884 402.982 75.4272 403.938 75.4517C404.894 75.4762 405.6 75.8434 405.717 75.7577C405.833 75.672 405.667 75.5619 405.359 75.3843C404.943 75.1623 404.444 75.0404 403.93 75.0354C403.423 75.0212 402.924 75.1286 402.508 75.3415C402.201 75.5068 402.093 75.6598 402.151 75.7027Z" fill="#263238"/>
<path d="M412.383 77.0309C412.373 77.2029 412.454 77.3709 412.609 77.4998C412.764 77.6287 412.981 77.7085 413.214 77.7226C413.333 77.7359 413.455 77.73 413.57 77.7053C413.686 77.6805 413.793 77.6376 413.884 77.5793C413.975 77.5211 414.047 77.449 414.097 77.3681C414.146 77.2871 414.171 77.1992 414.17 77.1105C414.179 76.9391 414.097 76.7718 413.942 76.6439C413.787 76.516 413.571 76.4375 413.338 76.4249C413.22 76.4117 413.099 76.4174 412.984 76.4418C412.869 76.4662 412.762 76.5086 412.671 76.5662C412.581 76.6237 412.508 76.6951 412.458 76.7753C412.408 76.8555 412.382 76.9427 412.383 77.0309Z" fill="#263238"/>
<path d="M412.317 76.1558C412.425 76.2476 413.148 75.8865 414.104 75.9048C415.06 75.9232 415.766 76.2966 415.891 76.2109C416.016 76.1252 415.833 76.015 415.525 75.8436C415.116 75.6157 414.617 75.4912 414.104 75.4886C413.595 75.4774 413.095 75.5845 412.674 75.7947C412.375 75.9599 412.267 76.113 412.317 76.1558Z" fill="#263238"/>
<path d="M408.593 81.4139C408.082 81.2847 407.551 81.2045 407.013 81.1752C406.764 81.1752 406.531 81.1078 406.498 80.9854C406.478 80.7941 406.542 80.603 406.681 80.4406L407.462 79.0633C408.189 77.8927 408.787 76.6808 409.249 75.4395C408.398 76.5642 407.67 77.7371 407.072 78.947C406.814 79.4306 406.556 79.8958 406.315 80.3365C406.154 80.5552 406.101 80.8085 406.166 81.0527C406.198 81.1191 406.251 81.179 406.32 81.2279C406.39 81.2767 406.473 81.3131 406.564 81.3343C406.702 81.3637 406.845 81.3802 406.988 81.3833C407.519 81.4435 408.058 81.4538 408.593 81.4139Z" fill="#263238"/>
<path d="M407.62 89.9041C410.945 90.0021 414.242 89.4194 417.145 88.2207C417.145 88.2207 414.726 91.7527 407.669 91.1345L407.62 89.9041Z" fill="#A36957"/>
<path d="M415.441 74.068C415.242 74.2945 414.494 74.1965 413.662 74.068C412.831 73.9394 412.1 73.8354 412 73.5721C411.9 73.3089 412.773 72.96 413.887 73.1253C415.001 73.2906 415.641 73.8721 415.441 74.068Z" fill="#263238"/>
<path d="M405.741 73.0278C405.667 73.291 404.869 73.3889 403.954 73.4195C403.04 73.4501 402.234 73.4195 402.126 73.1502C402.018 72.8808 402.791 72.5013 403.896 72.4646C405.002 72.4279 405.816 72.7768 405.741 73.0278Z" fill="#263238"/>
<path d="M408.609 83.1339C408.504 83.1155 408.394 83.1237 408.296 83.157C408.198 83.1903 408.118 83.2468 408.069 83.3175C408.021 83.3799 407.997 83.4504 407.998 83.5219C407.999 83.5933 408.025 83.6634 408.075 83.7251C408.124 83.7867 408.194 83.8378 408.278 83.8734C408.362 83.9089 408.458 83.9276 408.555 83.9276C408.652 83.9276 408.747 83.9089 408.832 83.8734C408.916 83.8378 408.986 83.7867 409.035 83.7251C409.084 83.6634 409.111 83.5933 409.112 83.5219C409.113 83.4504 409.088 83.3799 409.041 83.3175C408.982 83.2353 408.886 83.1705 408.769 83.1337C408.653 83.097 408.523 83.0906 408.401 83.1155" fill="#A36957"/>
<path d="M408.834 83.2072C408.834 83.1766 408.676 82.9991 408.252 83.0664C408.125 83.0907 408.009 83.1392 407.916 83.2069C407.822 83.2745 407.755 83.3591 407.72 83.452C407.675 83.5692 407.679 83.6936 407.731 83.8091C407.783 83.9247 407.88 84.0263 408.011 84.1009C408.149 84.1707 408.313 84.208 408.48 84.208C408.648 84.208 408.812 84.1707 408.95 84.1009C409.06 84.0461 409.147 83.9691 409.2 83.8791C409.253 83.789 409.27 83.6897 409.249 83.5928C409.166 83.2684 408.842 83.2194 408.825 83.2623C408.809 83.3051 408.942 83.4153 408.917 83.6051C408.911 83.652 408.89 83.6971 408.855 83.7366C408.82 83.7761 408.773 83.8087 408.717 83.8316C408.653 83.859 408.58 83.8734 408.505 83.8734C408.431 83.8734 408.358 83.859 408.293 83.8316C408.235 83.7953 408.191 83.7487 408.165 83.6961C408.139 83.6435 408.131 83.5869 408.144 83.5316C408.153 83.4833 408.179 83.4374 408.218 83.3979C408.257 83.3584 408.309 83.3266 408.368 83.3051C408.601 83.2011 408.809 83.25 408.834 83.2072Z" fill="#263238"/>
<path d="M421.135 77.8695C420.304 79.3019 418.242 80.4099 418.525 81.9586C418.708 82.9563 419.581 83.8868 419.414 84.8907C419.198 86.115 417.428 87.0209 417.17 88.2758C416.863 89.8123 418.899 91.0059 419.705 92.4383C420.894 94.5318 419.381 96.8824 419.34 99.1718C419.389 100.91 420.291 102.576 421.881 103.861C423.47 105.147 425.639 105.964 427.984 106.162C429.879 106.279 432.015 105.856 432.971 104.657C433.802 103.665 433.619 102.404 434.101 101.308C434.833 99.6676 436.952 98.4679 437.426 96.7784C438.257 93.7177 433.187 91.1467 433.52 88.0126C433.661 86.672 434.783 85.509 435.257 84.2112C435.558 83.3584 435.582 82.465 435.324 81.6043C435.067 80.7436 434.537 79.9399 433.777 79.259C432.522 78.1633 430.71 77.4226 429.621 76.2473C428.416 74.8945 428.375 73.1867 427.959 71.589C427.401 69.6471 426.183 67.841 424.42 66.3397C422.657 64.8384 420.406 63.6908 417.877 63.0041C415.348 62.3175 412.624 62.1143 409.96 62.4134C407.295 62.7126 404.777 63.5043 402.641 64.7147C402.641 64.7147 401.436 68.7487 407.063 69.4282C412.69 70.1076 415.292 69.3241 415.923 70.983C415.775 71.6664 415.848 72.366 416.137 73.0246C416.425 73.6832 416.922 74.282 417.586 74.7721C419.88 76.5963 422.066 76.2045 421.135 77.8695Z" fill="#263238"/>
<path d="M430.07 105.85C429.897 105.854 429.724 105.842 429.555 105.813C429.068 105.75 428.589 105.653 428.126 105.526C426.409 105.041 424.904 104.222 423.77 103.157C422.975 102.421 422.352 101.594 421.925 100.708C421.439 99.6992 421.184 98.6381 421.169 97.5678C421.151 96.3881 421.353 95.2121 421.767 94.0725C421.994 93.4706 422.271 92.8798 422.598 92.3034C422.941 91.7298 423.244 91.1434 423.504 90.5466C423.733 89.9585 423.733 89.335 423.504 88.7469C423.261 88.168 422.946 87.6066 422.565 87.0697C422.18 86.5373 421.854 85.9824 421.592 85.4108C421.337 84.845 421.277 84.2412 421.418 83.654C421.75 82.5032 422.698 81.6462 423.263 80.7708C423.801 79.9605 424.059 79.0645 424.011 78.1631C423.936 76.844 423.286 75.5777 422.158 74.5515C421.721 74.1921 421.251 73.8546 420.753 73.5415C421.336 73.7827 421.856 74.0976 422.291 74.472C423.501 75.4966 424.215 76.7887 424.319 78.1448C424.387 79.0855 424.136 80.0239 423.587 80.8749C423.014 81.7808 422.091 82.644 421.809 83.6968C421.526 84.7497 422.199 85.8577 422.939 86.9228C423.342 87.4751 423.671 88.0553 423.92 88.6551C424.165 89.2956 424.165 89.9735 423.92 90.614C423.643 91.2315 423.324 91.8383 422.964 92.432C422.637 92.9958 422.359 93.5744 422.133 94.1643C421.72 95.2751 421.516 96.4223 421.526 97.5739C421.5 99.5352 422.36 101.447 423.97 103.01C425.046 104.062 426.479 104.887 428.126 105.403C429.364 105.758 430.079 105.813 430.07 105.85Z" fill="#455A64"/>
<path d="M429.239 74.962C428.834 75.0392 428.419 75.0844 428.001 75.0967C426.861 75.1865 425.709 75.1639 424.577 75.0293C423.718 74.9357 422.894 74.717 422.152 74.3859C421.41 74.0548 420.765 73.618 420.254 73.1011C419.779 72.4472 419.4 71.7576 419.124 71.0443C418.769 70.3319 418.102 69.7267 417.229 69.3242C415.409 68.4734 413.272 68.3693 411.411 68.204C409.693 68.141 408.026 67.7576 406.565 67.0899C405.586 66.6124 404.879 65.8872 404.578 65.0515C404.506 64.8251 404.486 64.5912 404.52 64.3598C404.52 64.2007 404.57 64.1211 404.587 64.1211C404.596 64.4243 404.649 64.7259 404.745 65.0209C405.089 65.8023 405.795 66.4696 406.739 66.9063C408.174 67.5226 409.793 67.8675 411.452 67.9102C413.314 68.0694 415.525 68.1489 417.47 69.0549C418.422 69.4951 419.147 70.1564 419.531 70.9342C419.792 71.6294 420.151 72.3024 420.603 72.942C421.572 73.92 423.022 74.5794 424.643 74.7784C425.739 74.9284 426.855 74.9839 427.968 74.9436C428.392 74.9261 428.817 74.9322 429.239 74.962Z" fill="#455A64"/>
<path d="M427.178 69.979C426.865 70.0561 426.536 70.0914 426.206 70.0831C424.656 70.0908 423.164 69.6513 422.05 68.8588C421.541 68.4833 421.108 68.0567 420.761 67.5917C420.013 66.6612 419.29 65.5165 417.736 65.0391C416.239 64.6691 414.643 64.5663 413.081 64.7391C411.763 64.8755 410.426 64.8755 409.108 64.7391C408.191 64.6454 407.328 64.3657 406.615 63.9311C406.43 63.8128 406.268 63.6769 406.133 63.5271C406.033 63.421 405.991 63.3659 406.008 63.3618C406.008 63.3618 406.241 63.5577 406.723 63.8332C407.433 64.2054 408.259 64.4411 409.125 64.5188C410.419 64.6262 411.726 64.6098 413.015 64.4698C414.645 64.2737 416.316 64.3789 417.877 64.7758C418.68 65.0415 419.367 65.4651 419.864 66.0001C420.302 66.4773 420.704 66.9719 421.069 67.4815C421.397 67.9264 421.802 68.3379 422.274 68.7058C422.691 69.0168 423.171 69.2789 423.696 69.4832C424.469 69.7805 425.318 69.9536 426.189 69.9912C426.829 69.9851 427.17 69.9484 427.178 69.979Z" fill="#455A64"/>
<path d="M432.547 104.528C432.506 104.528 432.772 104.124 433.079 103.365C433.496 102.299 433.681 101.192 433.628 100.084C433.568 98.4437 432.96 96.8396 431.857 95.4134C431.251 94.6115 430.328 93.8953 429.572 93.0139C429.172 92.5648 428.89 92.0644 428.741 91.5386C428.609 90.9852 428.672 90.4163 428.923 89.8859C429.389 88.8269 430.22 87.9393 430.403 86.966C430.586 85.9927 429.954 85.1296 429.322 84.3154C428.997 83.9193 428.7 83.5106 428.433 83.0912C428.19 82.6844 428.03 82.2532 427.959 81.8118C427.881 81.034 427.914 80.2522 428.059 79.4796C428.325 78.3873 428.187 77.2625 427.66 76.223C427.425 75.8588 427.091 75.5339 426.679 75.2681C426.679 75.2681 426.721 75.2681 426.779 75.3048C426.877 75.3408 426.967 75.3884 427.045 75.4456C427.37 75.645 427.634 75.8934 427.818 76.174C428.419 77.2225 428.606 78.3746 428.358 79.4979C428.244 80.2562 428.23 81.0209 428.317 81.7812C428.522 82.6364 428.982 83.4476 429.663 84.1563C430.018 84.57 430.321 85.0063 430.569 85.4601C430.831 85.95 430.917 86.4813 430.819 87.0027C430.619 88.0739 429.763 88.9799 429.331 89.9777C429.104 90.4591 429.044 90.9746 429.156 91.4774C429.301 91.9638 429.566 92.4264 429.937 92.8425C430.644 93.6933 431.6 94.4218 432.207 95.2604C433.32 96.7347 433.915 98.3909 433.935 100.078C433.962 101.207 433.726 102.331 433.237 103.402C433.104 103.692 432.943 103.974 432.755 104.247C432.704 104.347 432.634 104.442 432.547 104.528Z" fill="#455A64"/>
<path d="M398.694 218.587C398.694 218.587 393.091 179.509 392.767 165.068C392.443 150.628 401.586 136.377 401.586 136.377L437.393 135.282C437.393 135.282 444.475 149.93 444.6 156.094C444.849 168.055 440.286 179.864 440.809 189.352L442.006 218.612" fill="#263238"/>
<path d="M443.211 170.541C443.024 170.66 442.827 170.77 442.621 170.871L442.297 171.036L441.948 171.287C441.64 171.483 441.361 171.703 441.117 171.942C439.961 172.983 439.122 174.85 438.316 177.17C437.904 178.457 437.296 179.705 436.504 180.892C436.263 181.217 435.985 181.526 435.672 181.816C435.523 181.963 435.382 182.122 435.207 182.263L434.658 182.667C433.873 183.208 432.96 183.639 431.965 183.94C429.962 184.589 427.693 184.895 425.632 185.66C423.52 186.497 421.888 187.866 421.035 189.517C420.021 191.176 419.373 192.914 418.542 194.542C417.711 196.171 416.589 197.725 414.801 198.717C413.093 199.592 411.064 200.063 408.983 200.07C407.055 200.156 405.268 200.113 403.664 200.29C402.22 200.401 400.84 200.784 399.657 201.404C398.794 201.902 398.147 202.574 397.795 203.339C397.573 203.821 397.524 204.338 397.654 204.838C397.754 205.181 397.879 205.347 397.854 205.353C397.72 205.199 397.624 205.029 397.571 204.851C397.396 204.34 397.419 203.803 397.638 203.302C397.968 202.499 398.62 201.789 399.508 201.264C400.72 200.59 402.155 200.167 403.664 200.039C405.326 199.843 407.096 199.868 409 199.776C411.019 199.766 412.987 199.305 414.644 198.454C416.323 197.373 417.563 195.97 418.226 194.402C419.057 192.792 419.664 191.047 420.719 189.358C421.614 187.639 423.32 186.216 425.524 185.348C427.668 184.565 429.937 184.265 431.891 183.64C432.847 183.349 433.725 182.934 434.484 182.416L435.007 182.03C435.174 181.896 435.315 181.743 435.465 181.602C435.758 181.324 436.016 181.026 436.238 180.714C437.034 179.544 437.65 178.312 438.075 177.041C438.906 174.728 439.812 172.836 441.034 171.789C441.277 171.551 441.556 171.333 441.865 171.14C441.998 171.055 442.114 170.969 442.23 170.902L442.571 170.743C442.779 170.666 442.993 170.598 443.211 170.541Z" fill="#FAFAFA"/>
<path d="M443.427 152.458C443.465 152.63 443.482 152.805 443.477 152.979C443.475 153.484 443.391 153.988 443.228 154.479C442.512 156.269 441.106 157.868 439.18 159.082C437.909 159.942 436.515 160.7 435.024 161.341C433.42 162.038 431.649 162.706 429.829 163.465C427.917 164.22 426.137 165.143 424.526 166.213C422.874 167.42 421.514 168.826 420.503 170.37C419.484 171.934 418.32 173.446 417.021 174.893C416.36 175.568 415.596 176.184 414.743 176.73C413.903 177.256 412.979 177.706 411.992 178.07C410.206 178.716 408.345 179.243 406.431 179.643C404.653 180.047 402.99 180.409 401.544 180.868C400.232 181.252 398.982 181.745 397.82 182.337C396.946 182.783 396.16 183.317 395.485 183.922C394.919 184.447 394.447 185.023 394.08 185.636C394.139 185.467 394.217 185.301 394.313 185.14C394.585 184.678 394.934 184.242 395.352 183.843C396.015 183.212 396.799 182.655 397.679 182.19C398.846 181.577 400.104 181.064 401.428 180.66C403.029 180.179 404.663 179.76 406.323 179.405C408.21 178.995 410.045 178.466 411.809 177.825C412.745 177.466 413.623 177.031 414.427 176.528C415.248 175.99 415.984 175.386 416.622 174.728C417.904 173.287 419.056 171.787 420.071 170.235C421.114 168.657 422.52 167.224 424.227 165.999C425.866 164.912 427.68 163.979 429.63 163.22C431.458 162.467 433.229 161.812 434.833 161.12C436.32 160.501 437.713 159.766 438.989 158.929C440.898 157.752 442.316 156.2 443.078 154.454C443.292 153.8 443.409 153.131 443.427 152.458Z" fill="#FAFAFA"/>
<path d="M392.95 167.113C392.917 167.075 392.892 167.034 392.875 166.99C392.813 166.872 392.76 166.752 392.717 166.629C392.575 166.142 392.603 165.636 392.8 165.16C393.266 163.936 395.103 162.363 398.062 161.585C399.541 161.212 401.212 160.973 402.957 160.655C404.407 160.478 405.778 160.048 406.956 159.402C408.135 158.756 409.086 157.911 409.731 156.939C410.204 156.226 410.618 155.492 410.97 154.741C411.62 153.112 412.503 151.538 413.605 150.046C414.867 148.58 416.783 147.483 419.024 146.943C421.063 146.456 423.142 146.067 425.25 145.78C427.13 145.514 428.951 145.056 430.661 144.421C432.108 143.812 433.357 142.976 434.318 141.972C435.737 140.523 436.546 138.799 436.645 137.014C436.649 136.359 436.591 135.704 436.471 135.055C436.722 135.691 436.837 136.352 436.811 137.014C436.779 138.838 435.997 140.611 434.567 142.101C433.594 143.137 432.319 144.001 430.835 144.629C429.103 145.288 427.254 145.764 425.341 146.043C423.253 146.335 421.193 146.725 419.174 147.212C417.022 147.731 415.183 148.785 413.97 150.193C412.886 151.665 412.014 153.216 411.369 154.821C411.01 155.585 410.585 156.331 410.097 157.055C409.605 157.751 408.978 158.39 408.235 158.953C406.776 159.933 404.979 160.6 403.04 160.881C401.278 161.212 399.616 161.42 398.161 161.775C395.277 162.497 393.449 163.985 392.958 165.172C392.757 165.63 392.703 166.116 392.8 166.592C392.871 166.762 392.921 166.936 392.95 167.113Z" fill="#FAFAFA"/>
<path d="M440.352 200.168C440.386 200.295 440.405 200.424 440.41 200.554C440.426 200.924 440.373 201.295 440.252 201.655C439.73 202.983 438.625 204.145 437.111 204.961C436.099 205.554 434.98 206.041 433.786 206.406C432.514 206.804 431.109 207.122 429.63 207.459C428.094 207.789 426.592 208.198 425.133 208.683C423.618 209.216 422.26 209.962 421.135 210.88C419.922 211.811 418.874 212.833 417.711 213.739C416.598 214.617 415.305 215.36 413.879 215.943C411.453 216.918 408.738 217.439 405.975 217.461C404.123 217.475 402.283 217.25 400.539 216.794C400.065 216.673 399.604 216.528 399.159 216.359C398.997 216.309 398.843 216.246 398.702 216.169C398.869 216.203 399.033 216.246 399.192 216.298C399.649 216.441 400.115 216.568 400.588 216.677C402.33 217.079 404.15 217.268 405.975 217.234C408.677 217.183 411.323 216.651 413.688 215.686C415.069 215.109 416.322 214.381 417.403 213.525C418.542 212.631 419.581 211.615 420.819 210.66C422.011 209.708 423.446 208.938 425.042 208.395C426.522 207.908 428.047 207.499 429.605 207.171C431.068 206.84 432.464 206.559 433.761 206.155C434.921 205.805 436.011 205.342 437.003 204.777C438.492 204.003 439.602 202.895 440.169 201.619C440.292 201.14 440.353 200.655 440.352 200.168Z" fill="#FAFAFA"/>
<path d="M436.271 119.036L429.339 119.158C429.072 120.187 428.542 121.17 427.776 122.053C421.958 114.646 417.495 104.73 416.381 100.745C416.547 100.347 416.738 99.9063 416.979 99.4166C417.152 98.6728 417.121 97.911 416.888 97.1762C416.688 96.2886 416.356 95.0949 416.256 94.544C415.949 92.8545 415.574 92.5913 414.777 92.781C413.696 93.0442 415.225 97.5128 414.336 97.6108C413.854 97.6597 413.272 96.1294 413.106 94.8745C412.94 93.6197 412.158 89.751 411.601 89.4939C410.77 89.1143 410.047 89.7142 410.263 90.963C410.479 92.2117 410.737 96.007 409.839 96.0621C408.942 96.1172 408.177 89.702 408.177 89.702C408.177 89.702 408.318 88.3063 407.271 88.3369C405.392 88.3981 406.864 95.1561 407.022 95.7989C407.138 96.2396 406.19 96.3253 406.074 95.8417C405.958 95.3581 405.525 89.4326 403.581 89.4816C402.101 89.4816 404.719 95.0459 403.888 96.3314C403.057 97.6169 402.492 91.973 401.087 92.0465C400.563 92.0771 400.173 92.1505 401.137 95.3398C402.06 97.8737 403.17 100.369 404.462 102.814C406.689 111.659 416.464 139.958 431.783 134.78C440.36 131.878 443.835 119.036 443.835 119.036H436.271Z" fill="#B78876"/>
<path d="M406.722 96.2276C406.788 96.2398 406.856 96.2398 406.922 96.2276C407.022 96.2051 407.108 96.1569 407.165 96.0919C407.221 96.0268 407.244 95.949 407.229 95.8726C407.229 95.4931 407.13 94.9422 407.013 94.226C406.819 93.3628 406.691 92.4921 406.631 91.6183C406.631 91.1041 406.631 90.5531 406.673 89.9716C406.685 89.6759 406.727 89.3813 406.797 89.0901C406.864 88.8147 407.113 88.478 407.404 88.5331H407.454C407.745 88.5331 407.978 88.6923 408.069 88.9494C408.172 89.2158 408.211 89.4933 408.185 89.7696C408.357 91.4839 408.654 93.1902 409.075 94.8809C409.141 95.1074 409.208 95.34 409.307 95.5727C409.352 95.6917 409.407 95.8083 409.474 95.9216C409.516 95.9846 409.563 96.0459 409.615 96.1052C409.652 96.15 409.703 96.1876 409.764 96.2153C409.824 96.2429 409.893 96.2597 409.964 96.2644C410.085 96.2546 410.2 96.2185 410.293 96.1607C410.386 96.103 410.454 96.0261 410.488 95.9399C410.559 95.8202 410.612 95.695 410.646 95.5665C410.71 95.3198 410.755 95.0704 410.779 94.8197C410.854 93.7997 410.835 92.7771 410.72 91.7591C410.615 91.2508 410.587 90.7354 410.637 90.2226C410.668 90.0011 410.814 89.7969 411.045 89.6533C411.098 89.63 411.157 89.6152 411.219 89.6099C411.28 89.6046 411.343 89.609 411.402 89.6227C411.472 89.6352 411.54 89.6558 411.602 89.6839C411.644 89.7072 411.675 89.7391 411.693 89.7757C411.955 90.2721 412.147 90.787 412.266 91.3122C412.416 91.8509 412.541 92.4079 412.657 92.965C412.773 93.522 412.881 94.0852 412.973 94.6545C413.044 95.2419 413.172 95.8249 413.355 96.399C413.454 96.6926 413.578 96.981 413.729 97.2622C413.814 97.4196 413.932 97.5662 414.078 97.6968C414.135 97.751 414.21 97.7925 414.297 97.8163C414.384 97.8401 414.478 97.8454 414.569 97.8314C414.653 97.811 414.729 97.7749 414.788 97.7266C414.848 97.6784 414.89 97.6196 414.91 97.556C415.008 97.2432 415.039 96.9209 415.001 96.601C415.001 96.295 414.951 95.9889 414.91 95.6951C414.851 95.1809 414.785 94.6728 414.76 94.1709C414.739 93.9242 414.739 93.6768 414.76 93.4302C414.776 93.321 414.813 93.2139 414.868 93.1119C414.885 93.0782 414.911 93.0471 414.943 93.0201H415.051C415.599 92.8548 415.782 93.4179 415.932 93.8709C416.082 94.3239 416.14 94.8381 416.273 95.3217C416.489 96.2827 416.771 97.2438 416.913 98.162C417.009 98.6017 416.986 99.051 416.846 99.4842C416.647 99.9249 416.447 100.36 416.256 100.794V100.837V100.874C417.23 103.881 418.471 106.838 419.971 109.725C421.285 112.339 422.606 114.622 423.762 116.459C424.917 118.295 425.964 119.734 426.679 120.701L427.51 121.797C427.6 121.927 427.709 122.05 427.834 122.164C427.765 122.028 427.678 121.897 427.577 121.772L426.746 120.652C426.064 119.666 425.083 118.203 423.953 116.367C422.822 114.53 421.542 112.247 420.262 109.633C418.798 106.75 417.582 103.802 416.622 100.806V100.892C416.813 100.464 417.004 100.029 417.204 99.5944C417.377 99.1174 417.411 98.6188 417.303 98.1314C417.154 97.1703 416.879 96.2399 416.663 95.2727C416.539 94.7952 416.456 94.3055 416.323 93.8036C416.314 93.5457 416.255 93.2901 416.148 93.0445C416.053 92.8952 415.892 92.7742 415.691 92.7017C415.478 92.6503 415.248 92.6503 415.034 92.7017H414.901C414.831 92.7184 414.766 92.7454 414.71 92.7813C414.618 92.839 414.546 92.9126 414.502 92.9956C414.426 93.1281 414.378 93.2685 414.361 93.4118C414.336 93.6768 414.336 93.9426 414.361 94.2076C414.361 94.7218 414.461 95.236 414.519 95.7502C414.519 96.0501 414.585 96.3623 414.602 96.6378C414.635 96.9139 414.615 97.192 414.544 97.4642C414.544 97.5254 414.477 97.5131 414.544 97.5437L414.494 97.507C414.388 97.407 414.304 97.2955 414.245 97.1765C414.099 96.9117 413.98 96.6396 413.887 96.3623C413.705 95.8049 413.58 95.238 413.513 94.6667C413.425 94.0913 413.316 93.522 413.189 92.9588C413.073 92.3957 412.94 91.8448 412.79 91.2938C412.665 90.7331 412.453 90.1847 412.158 89.6594C412.101 89.5717 412.012 89.4975 411.901 89.4452C411.804 89.4038 411.701 89.371 411.593 89.3472C411.475 89.3243 411.351 89.319 411.23 89.3316C411.109 89.3443 410.992 89.3745 410.887 89.4207C410.715 89.515 410.572 89.6344 410.466 89.7713C410.361 89.9083 410.294 90.0598 410.272 90.2165C410.218 90.4946 410.218 90.777 410.272 91.0551C410.272 91.3183 410.355 91.5754 410.38 91.8325C410.495 92.8341 410.52 93.8402 410.454 94.8442C410.435 95.0827 410.393 95.32 410.33 95.5543C410.306 95.6637 410.264 95.7706 410.205 95.8726C410.184 95.913 410.153 95.9503 410.114 95.9828C410.114 96.0379 410.055 95.9828 410.064 96.0562C410.064 95.995 410.064 96.0562 410.064 95.9767C410.027 95.9353 409.994 95.8924 409.964 95.8481C409.906 95.7502 409.856 95.64 409.806 95.5359C409.715 95.3156 409.648 95.0891 409.582 94.8687C409.148 93.1925 408.835 91.5007 408.642 89.8002C408.667 89.4925 408.62 89.1839 408.501 88.8881C408.446 88.7339 408.334 88.594 408.177 88.4841C408.096 88.4263 407.999 88.3812 407.893 88.3517C407.788 88.3223 407.675 88.309 407.562 88.3127H407.612C407.471 88.2976 407.328 88.3133 407.199 88.3579C407.07 88.4026 406.962 88.4741 406.889 88.5637C406.765 88.7097 406.68 88.8718 406.639 89.0412C406.57 89.3447 406.531 89.6516 406.523 89.9594C406.523 90.5715 406.523 91.1041 406.523 91.6244C406.602 92.5038 406.754 93.3788 406.98 94.2443C407.121 94.9544 407.229 95.5053 407.279 95.8787C407.295 95.9441 407.28 96.0115 407.236 96.0696C407.192 96.1276 407.122 96.1726 407.038 96.197C406.789 96.2154 406.714 96.2215 406.722 96.2276Z" fill="#A36957"/>
<path d="M352.588 127.465C350.966 127.439 349.347 127.577 347.775 127.875C343.478 128.708 336.072 132.013 335.765 136.096H341.151C341.151 136.096 338.134 140.822 339.015 140.381C341.317 139.242 345.888 135.821 345.888 135.821L352.588 127.465Z" fill="#B78876"/>
<path d="M426.006 56.3162C425.881 56.3162 425.399 53.0474 424.917 48.9706C424.435 44.8938 424.136 41.625 424.252 41.625C424.369 41.625 424.859 44.8938 425.341 48.9706C425.823 53.0474 426.122 56.3162 426.006 56.3162Z" fill="#263238"/>
<path d="M449.62 41.876C449.712 41.9249 446.079 45.812 441.5 50.556C436.92 55.3001 433.121 59.1259 433.022 59.0525C432.922 58.979 436.562 55.1164 441.142 50.3724C445.722 45.6283 449.521 41.827 449.62 41.876Z" fill="#263238"/>
<path d="M459.427 59.4933C459.427 59.579 455.205 60.2952 449.952 61.091C444.699 61.8868 440.41 62.4622 440.385 62.3765C440.36 62.2908 444.599 61.5746 449.86 60.7788C455.122 59.983 459.369 59.4076 459.427 59.4933Z" fill="#263238"/>
<path d="M176.768 143.57L147.344 254.857L143.521 269.425L339.679 268.728C348.49 268.697 356.303 262.937 359.121 254.379L393.914 149.318C396.067 142.824 391.346 136.066 384.663 136.072L186.077 136.225C181.755 136.219 177.882 139.23 176.768 143.57Z" fill="#840227"/>
<g opacity="0.5">
<path d="M176.768 143.57L147.344 254.857L143.521 269.425L339.679 268.728C348.49 268.697 356.303 262.937 359.121 254.379L393.914 149.318C396.067 142.824 391.346 136.066 384.663 136.072L186.077 136.225C181.755 136.219 177.882 139.23 176.768 143.57Z" fill="black"/>
</g>
<path d="M320.886 247.303L300.107 124.013C299.275 118.962 293.798 115.192 287.34 115.21L241.791 115.314C240.098 115.328 238.427 115.596 236.879 116.101C235.332 116.606 233.94 117.338 232.789 118.252L211.178 135.19L84.5064 135.692C76.7681 135.723 70.8168 141.122 71.8392 147.182L91.1309 261.131C91.9621 266.175 97.4395 269.939 103.881 269.933L324.685 269.609C349.271 269.982 351.623 264.638 351.623 264.638C323.396 269.235 320.886 247.333 320.886 247.303Z" fill="#840227"/>
<g opacity="0.5">
<path d="M225.675 222.646L218.228 228.535L160.876 190.533L168.323 184.645L225.675 222.646Z" fill="white"/>
<path d="M215.11 183.341L223.339 188.795L171.448 229.839L163.211 224.384L215.11 183.341Z" fill="white"/>
</g>
<path d="M352.413 63.5271C352.144 63.4436 351.913 63.3055 351.746 63.1288C351.58 62.9521 351.486 62.7442 351.474 62.5294L351.141 56.8488C351.13 56.6722 351.174 56.4961 351.27 56.3344C351.367 56.1726 351.514 56.0297 351.698 55.9169C351.883 55.804 352.101 55.7244 352.334 55.6843C352.568 55.6441 352.811 55.6446 353.045 55.6857C353.688 55.788 354.353 55.7924 354.999 55.6987C355.645 55.605 356.259 55.4152 356.802 55.1409C357.301 54.9079 357.731 54.6019 358.064 54.2418C358.397 53.8818 358.627 53.4753 358.738 53.0474C358.814 52.6141 358.77 52.1742 358.61 51.7536C358.45 51.333 358.177 50.9403 357.807 50.5989C357.418 50.2103 356.928 49.8822 356.366 49.6333C355.804 49.3843 355.181 49.2195 354.532 49.1481C353.225 49.0945 351.93 49.3676 350.859 49.923C349.788 50.4785 349.003 51.2838 348.631 52.2088C348.507 52.489 348.241 52.7232 347.888 52.8625C347.535 53.0018 347.123 53.0355 346.737 52.9566C346.352 52.8777 346.022 52.6923 345.818 52.439C345.613 52.1856 345.549 51.8839 345.639 51.5966C346.204 50.1418 347.433 48.8748 349.117 48.0086C350.802 47.1424 352.841 46.7299 354.89 46.8403C355.956 46.945 356.984 47.2065 357.91 47.6092C358.837 48.012 359.644 48.5478 360.284 49.1848C360.907 49.7752 361.362 50.4516 361.623 51.174C361.885 51.8963 361.947 52.6499 361.805 53.3902C361.616 54.1294 361.224 54.8322 360.652 55.4555C360.08 56.0787 359.341 56.6091 358.481 57.014C357.234 57.6323 355.777 57.9821 354.275 58.024L354.532 62.4069C354.542 62.5995 354.486 62.7907 354.368 62.9629C354.251 63.1351 354.076 63.2827 353.861 63.392C353.645 63.5012 353.396 63.5687 353.135 63.588C352.875 63.6074 352.612 63.578 352.371 63.5027L352.413 63.5271Z" fill="#840227"/>
<path d="M354.69 65.8533C354.708 66.0381 354.65 66.2226 354.525 66.3835C354.401 66.5443 354.214 66.6743 353.988 66.7569C353.763 66.8394 353.51 66.871 353.26 66.8474C353.01 66.8239 352.776 66.7463 352.586 66.6246C352.397 66.5029 352.26 66.3425 352.194 66.1636C352.128 65.9848 352.136 65.7955 352.216 65.6199C352.296 65.4443 352.446 65.2901 352.645 65.1769C352.844 65.0637 353.084 64.9966 353.335 64.984C353.502 64.9749 353.67 64.9902 353.828 65.029C353.987 65.0679 354.133 65.1295 354.259 65.2103C354.385 65.2912 354.488 65.3896 354.562 65.5C354.636 65.6103 354.68 65.7304 354.69 65.8533Z" fill="#840227"/>
<path d="M325.707 55.5144C325.743 55.3932 325.768 55.2706 325.782 55.1471C325.782 54.8777 325.873 54.5349 325.94 54.0514C326.022 53.4576 326.158 52.8686 326.347 52.2884C326.455 51.9456 326.513 51.5661 326.68 51.1804C326.846 50.7948 327.012 50.3785 327.195 49.9562C328.157 47.8634 329.56 45.8949 331.351 44.1225C333.698 41.8274 336.675 39.9212 340.087 38.5276C342.029 37.7212 344.097 37.0922 346.246 36.6545C348.565 36.2018 350.953 35.9713 353.352 35.9689C354.616 35.9539 355.88 36.003 357.134 36.1158C357.774 36.1648 358.406 36.2872 359.046 36.3668C359.693 36.4484 360.332 36.5629 360.958 36.7096C363.577 37.2487 366.07 38.0807 368.347 39.1765C373.41 41.5952 377.267 45.162 379.335 49.3379C380.448 51.5748 381.011 53.94 380.997 56.3224C381.032 58.7767 380.443 61.214 379.26 63.5088L378.886 64.2067L378.836 64.2985L378.886 64.3903C380.972 67.9223 383.042 71.3931 384.995 74.7538L385.344 74.4599L372.877 70.9402L372.727 70.8973L372.602 70.983C369.304 73.3365 365.267 75.0525 360.85 75.978C357.075 76.7433 353.124 76.9103 349.255 76.4682C345.387 76.0261 341.69 74.9849 338.408 73.4132C335.72 72.115 333.35 70.4902 331.401 68.6079C328.575 65.8606 326.745 62.6293 326.081 59.2178C325.981 58.6056 325.898 58.0914 325.824 57.6262C325.749 57.161 325.824 56.7815 325.782 56.457C325.74 56.1326 325.782 55.9184 325.782 55.7408C325.823 55.7362 325.861 55.7202 325.887 55.6961C325.913 55.6719 325.926 55.6414 325.923 55.6106C325.92 55.5798 325.901 55.551 325.87 55.53C325.839 55.509 325.799 55.4974 325.757 55.4974C325.715 55.4974 325.675 55.509 325.644 55.53C325.613 55.551 325.594 55.5798 325.591 55.6106C325.588 55.6414 325.601 55.6719 325.627 55.6961C325.653 55.7202 325.691 55.7362 325.732 55.7408C325.732 55.9184 325.732 56.1571 325.732 56.457C325.732 56.757 325.732 57.1732 325.732 57.6385C325.732 58.1037 325.873 58.6362 325.957 59.2423C326.23 60.7146 326.706 62.1626 327.378 63.5639C328.329 65.4145 329.609 67.1641 331.185 68.7671C333.142 70.6828 335.528 72.3389 338.241 73.6642C341.564 75.2751 345.313 76.3473 349.241 76.8095C353.169 77.2718 357.186 77.1135 361.024 76.3453C365.494 75.4103 369.583 73.6778 372.927 71.3013L372.652 71.3442L385.12 74.8823L385.743 75.0598L385.469 74.5885C383.491 71.2279 381.446 67.7632 379.368 64.225V64.4026L379.751 63.6864C380.963 61.3416 381.567 58.8497 381.529 56.3407C381.555 53.9077 380.992 51.4908 379.867 49.2032C377.755 44.9441 373.812 41.3095 368.638 38.852C366.303 37.7307 363.746 36.884 361.057 36.3423C360.421 36.194 359.771 36.0815 359.112 36.0056C358.464 35.9199 357.824 35.7975 357.176 35.7546C355.905 35.6384 354.625 35.5852 353.344 35.5955C350.907 35.6031 348.481 35.8459 346.129 36.3178C343.952 36.7731 341.857 37.4184 339.887 38.2399C336.441 39.6677 333.446 41.6186 331.102 43.9634C329.316 45.7651 327.932 47.7655 327.004 49.8888C326.829 50.3296 326.663 50.7519 326.513 51.1131C326.381 51.4821 326.276 51.8561 326.198 52.2333C326.019 52.8175 325.903 53.411 325.848 54.0085C325.799 54.4798 325.765 54.841 325.74 55.1103C325.706 55.2434 325.694 55.3792 325.707 55.5144Z" fill="#263238"/>
</svg>
