<?xml version="1.0" encoding="UTF-8"?>
<svg version="1.1" xmlns="http://www.w3.org/2000/svg" width="666" height="666">
<path d="M0 0 C32.34 0 64.68 0 98 0 C96.38958265 4.02604338 94.72040474 7.38221782 92.54296875 11.09375 C92.20410141 11.67280594 91.86523407 12.25186188 91.51609802 12.84846497 C90.41041766 14.73460341 89.29925909 16.61743911 88.1875 18.5 C87.40999014 19.82185675 86.63248366 21.1437155 85.85498047 22.46557617 C81.04467962 30.62618899 76.13077893 38.71416358 71.10302734 46.74291992 C66.04202325 54.85566422 61.17825114 63.08186857 56.3125 71.3125 C51.27369672 79.83488278 46.23404044 88.34596172 40.91845703 96.69970703 C36.35136216 103.93369028 32.04127144 111.32410834 27.6875 118.6875 C21.89165936 128.48965117 16.04031197 138.24407026 9.99951172 147.89794922 C4.53940365 156.66335735 -0.69549268 165.56094821 -5.95117188 174.44970703 C-10.22762637 181.67998403 -14.50284385 188.90398331 -19 196 C-22.29102713 201.21660205 -25.50315782 206.47329332 -28.64453125 211.78125 C-29.06280685 212.48600464 -29.48108246 213.19075928 -29.91203308 213.91687012 C-32.05007988 217.52039923 -34.18326812 221.12678437 -36.31445312 224.734375 C-40.137608 231.20277357 -43.97030959 237.65712016 -48 244 C-43.70865946 252.07101739 -39.09304399 259.89814749 -34.3125 267.6875 C-32.80490691 270.15349728 -31.30021975 272.62125451 -29.796875 275.08984375 C-29.40850967 275.72753693 -29.02014435 276.3652301 -28.62001038 277.02224731 C-24.03806991 284.56086669 -19.55271498 292.15653694 -15.0625 299.75 C-10.10915064 308.12347557 -5.14847747 316.48217427 0.07592773 324.69042969 C5.15805288 332.73758021 9.93552448 340.97262286 14.77978516 349.1640625 C21.27123057 360.15429403 21.27123057 360.15429403 28 371 C32.95416579 378.7854374 37.61637671 386.74509983 42.3125 394.6875 C47.62769765 403.67676904 52.96008322 412.64658923 58.5 421.5 C64.03991805 430.35341281 69.37225695 439.32325548 74.6875 448.3125 C82.0369583 460.75982059 82.0369583 460.75982059 89.625 473.0625 C89.99826416 473.65417969 90.37152832 474.24585938 90.75610352 474.85546875 C91.47013469 475.98637873 92.1842435 477.11723971 92.8984375 478.24804688 C94.99848412 481.58801463 97.06966488 484.94486284 99.125 488.3125 C99.5163916 488.9422876 99.9077832 489.5720752 100.31103516 490.22094727 C103 494.65498292 103 494.65498292 103 498 C90.64958094 498.65217083 78.30331598 499.14783144 65.93911839 499.45074081 C60.19496366 499.59624599 54.46266418 499.79290227 48.7253418 500.11230469 C10.53867716 502.183087 10.53867716 502.183087 2.32852173 495.38494873 C-3.64006378 489.30567666 -6.69674839 481.61840867 -9.52519226 473.71444702 C-12.03921455 467.38263686 -15.76235091 461.83528551 -19.4375 456.125 C-20.23639147 454.82244124 -21.03127912 453.5173958 -21.81811523 452.20751953 C-22.43372314 451.19286621 -23.04933105 450.17821289 -23.68359375 449.1328125 C-28.52712523 441.14395841 -33.32853392 433.12992812 -38.12893677 425.1151123 C-44.03593066 415.25386298 -49.98339939 405.41798394 -55.95654297 395.59667969 C-60.32655519 388.41096876 -64.68142245 381.21676659 -69 374 C-73.56166826 366.38307114 -78.14282848 358.77806014 -82.7421875 351.18383789 C-83.48541097 349.95607757 -84.22794754 348.72790113 -84.96972656 347.49926758 C-89.16003744 340.56038064 -93.42141898 333.69152105 -98 327 C-105.680836 339.22878241 -113.1519452 351.5695148 -120.5 364 C-126.23340685 373.6985549 -132.02465815 383.34775015 -138.0012207 392.89916992 C-143.46114789 401.66412945 -148.69573547 410.56135882 -153.95117188 419.44970703 C-158.56845613 427.25623092 -163.20378278 435.04066173 -168.07714844 442.69091797 C-170.94703613 447.23307185 -173.69933689 451.84031179 -176.43359375 456.46484375 C-176.84050446 457.15277008 -177.24741516 457.84069641 -177.66665649 458.54946899 C-180.07994781 462.63261897 -182.48494748 466.72050923 -184.8823595 470.81300163 C-185.66412326 472.13158304 -186.45606772 473.44422973 -187.26208782 474.74812508 C-189.41766943 478.23965457 -191.36597864 481.71101548 -193.08454895 485.43881226 C-198.57960703 496.54392489 -198.57960703 496.54392489 -204.2838726 498.9722538 C-211.00431688 500.53426553 -217.85215661 500.20519796 -224.703125 500.01171875 C-226.91264964 500.00538472 -229.12219933 500.00514487 -231.33172607 500.01069641 C-235.94677326 500.00419362 -240.55616697 499.94019554 -245.16992188 499.83178711 C-251.07521024 499.69541079 -256.97328775 499.6788709 -262.87987137 499.70212078 C-267.4359142 499.71106776 -271.99034803 499.66918305 -276.54598236 499.61072731 C-278.72272117 499.58651459 -280.89964248 499.57510649 -283.0765152 499.57691002 C-300.00067609 499.53470882 -300.00067609 499.53470882 -304.82173157 495.83399963 C-306.6545101 493.26554409 -307.83406967 490.92085831 -309 488 C-309.93807089 486.4241615 -310.89716961 484.86043878 -311.88671875 483.31640625 C-312.8233882 481.73358692 -313.7568938 480.14889175 -314.6875 478.5625 C-318.61722035 471.93927867 -322.61435765 465.37166727 -326.75 458.875 C-331.50730519 451.39630824 -336.17669844 443.86709836 -340.8125 436.3125 C-346.00521964 427.85179917 -351.22812098 419.41160991 -356.5 411 C-363.10778417 400.4540497 -369.63744692 389.8613303 -376.15234375 379.2578125 C-381.22211636 371.00727844 -386.32202498 362.77548694 -391.42333984 354.54443359 C-394.11708555 350.19723357 -396.80839917 345.84852823 -399.5 341.5 C-400.58332213 339.74999307 -401.66665546 337.99999306 -402.75 336.25 C-409.25 325.75 -409.25 325.75 -410.87451172 323.12573242 C-411.95940544 321.3732494 -413.04436653 319.62080809 -414.12939453 317.8684082 C-416.81440403 313.53173543 -419.49829291 309.19437771 -422.1796875 304.85546875 C-427.86522017 295.65841169 -433.57393039 286.47656805 -439.3125 277.3125 C-445.98063005 266.66110324 -452.57393843 255.96478966 -459.15234375 245.2578125 C-464.22211636 237.00727844 -469.32202498 228.77548694 -474.42333984 220.54443359 C-477.11708555 216.19723357 -479.80839917 211.84852823 -482.5 207.5 C-483.58332213 205.74999307 -484.66665546 203.99999306 -485.75 202.25 C-492.25 191.75 -492.25 191.75 -493.87451172 189.12573242 C-494.95940544 187.3732494 -496.04436653 185.62080809 -497.12939453 183.8684082 C-499.81440403 179.53173543 -502.49829291 175.19437771 -505.1796875 170.85546875 C-510.86522041 161.65841129 -516.57399548 152.47660905 -522.3125 143.3125 C-529.00812346 132.61566372 -535.64280019 121.88234828 -542.234375 111.12109375 C-544.61300198 107.24097364 -547.01645268 103.37907051 -549.453125 99.53515625 C-550.23187988 98.29548096 -550.23187988 98.29548096 -551.02636719 97.03076172 C-551.97634506 95.52017728 -552.93473081 94.01483197 -553.90332031 92.51611328 C-556.2509968 88.76037985 -557.22209559 86.39532815 -557 82 C-544.58710487 81.79142098 -532.17462686 81.63153064 -519.76033592 81.53369045 C-513.99568136 81.48672977 -508.23222601 81.42304301 -502.46826172 81.32104492 C-496.90496684 81.22321456 -491.34282479 81.16943393 -485.77873611 81.14610481 C-483.65670238 81.12948168 -481.53473144 81.09701838 -479.41318893 81.04842949 C-462.77791389 80.68260996 -462.77791389 80.68260996 -458.43977356 83.89706421 C-456.85340936 86.23436977 -455.89700457 88.33176867 -455 91 C-454.44948975 91.86334961 -453.89897949 92.72669922 -453.33178711 93.61621094 C-452.9013208 94.31520508 -452.47085449 95.01419922 -452.02734375 95.734375 C-451.5271875 96.54455078 -451.02703125 97.35472656 -450.51171875 98.18945312 C-449.99222656 99.03443359 -449.47273438 99.87941406 -448.9375 100.75 C-447.79040681 102.60940105 -446.64327017 104.4687753 -445.49609375 106.328125 C-444.91585449 107.26978516 -444.33561523 108.21144531 -443.73779297 109.18164062 C-440.99806784 113.62493746 -438.24876184 118.06229016 -435.5 122.5 C-434.41661618 124.24996875 -433.33328296 125.99996882 -432.25 127.75 C-431.71375 128.61625 -431.1775 129.4825 -430.625 130.375 C-360.75 243.25 -360.75 243.25 -359.12548828 245.87426758 C-358.04059456 247.6267506 -356.95563347 249.37919191 -355.87060547 251.1315918 C-353.18559597 255.46826457 -350.50170709 259.80562229 -347.8203125 264.14453125 C-342.13477983 273.34158831 -336.42606961 282.52343195 -330.6875 291.6875 C-324.01936995 302.33889676 -317.42606157 313.03521034 -310.84765625 323.7421875 C-305.77788364 331.99272156 -300.67797502 340.22451306 -295.57666016 348.45556641 C-292.88291445 352.80276643 -290.19160083 357.15147177 -287.5 361.5 C-286.41667787 363.25000693 -285.33334454 365.00000694 -284.25 366.75 C-277.75 377.25 -277.75 377.25 -276.12304688 379.88012695 C-275.04857994 381.61449889 -273.9717884 383.34743304 -272.89257812 385.07885742 C-270.02700614 389.68331059 -267.21624308 394.31225937 -264.46875 398.98828125 C-263.88802734 399.9628125 -263.30730469 400.93734375 -262.70898438 401.94140625 C-261.59118231 403.81931372 -260.4876587 405.70581303 -259.40039062 407.6015625 C-258.89701172 408.44074219 -258.39363281 409.27992188 -257.875 410.14453125 C-257.43929688 410.89065674 -257.00359375 411.63678223 -256.5546875 412.40551758 C-255.06884963 414.21754869 -255.06884963 414.21754869 -252.54589844 414.56225586 C-249.82644032 414.22567504 -249.82644032 414.22567504 -248.14160156 411.87402344 C-247.5637793 410.87918945 -246.98595703 409.88435547 -246.390625 408.859375 C-245.72724121 407.74022705 -245.06385742 406.6210791 -244.38037109 405.46801758 C-243.67007956 404.22877457 -242.95996061 402.98943262 -242.25 401.75 C-241.50145144 400.4750148 -240.75093105 399.2011854 -239.99853516 397.9284668 C-238.43375753 395.27815964 -236.87764944 392.62303787 -235.32714844 389.96435547 C-232.10169665 384.44952132 -228.7679316 379.00139879 -225.43615723 373.55041504 C-223.65745468 370.63733691 -221.88691909 367.71931556 -220.1171875 364.80078125 C-219.77099365 364.22987762 -219.4247998 363.658974 -219.06811523 363.07077026 C-214.90877046 356.20616358 -210.78673682 349.31923354 -206.66357422 342.43286133 C-201.61503452 334.0077528 -196.52062649 325.61101209 -191.41699219 317.21923828 C-185.79995208 307.98182047 -180.22423239 298.72030807 -174.6706543 289.44458008 C-169.5523519 280.90324799 -164.38823273 272.39033981 -159.21484375 263.88232422 C-154.31464126 255.82289619 -149.43983228 247.74901498 -144.59692383 239.6550293 C-139.89456668 231.80501738 -135.13977111 223.98703252 -130.38623047 216.16796875 C-125.90237074 208.79161474 -121.43219131 201.40756208 -117 194 C-111.83390267 185.36585404 -106.61300114 176.76544511 -101.38623047 168.16796875 C-96.90237072 160.79161471 -92.43219604 153.40755925 -88 146 C-83.26318602 138.08342214 -78.48058908 130.19508467 -73.6875 122.3125 C-68.26328836 113.39182852 -62.86310879 104.45760894 -57.5 95.5 C-51.77511574 85.93814391 -46.00502401 76.40469808 -40.21484375 66.88232422 C-35.32045144 58.83245228 -30.45041882 50.76873546 -25.61450195 42.68359375 C-22.63553801 37.70931007 -19.63668039 32.74748607 -16.625 27.79296875 C-16.2434375 27.16520538 -15.861875 26.53744202 -15.46875 25.89065552 C-13.57576998 22.77706788 -11.68133285 19.66437625 -9.78515625 16.55273438 C-9.0859221 15.4036552 -8.38670269 14.25456706 -7.6875 13.10546875 C-6.76517578 11.59182739 -6.76517578 11.59182739 -5.82421875 10.04760742 C-3.83598482 6.72599016 -1.92065472 3.36114577 0 0 Z " fill="#820126" transform="translate(557,95)"/>
<path d="M0 0 C129.69 0 259.38 0 393 0 C391.45388471 4.63834588 390.17022857 7.69029548 387.68359375 11.7265625 C386.67365356 13.37688477 386.67365356 13.37688477 385.64331055 15.06054688 C384.90808483 16.24872543 384.17281343 17.43687573 383.4375 18.625 C382.67489216 19.8674429 381.91294055 21.11028882 381.15161133 22.35351562 C379.56652838 24.94071242 377.97862822 27.52614705 376.38867188 30.11035156 C372.98982994 35.63907465 369.62328992 41.1873663 366.25762939 46.73632812 C365.19269082 48.49144506 364.12651737 50.24580645 363.06005859 52 C359.79928844 57.36611268 356.55155872 62.7394904 353.3359375 68.1328125 C352.7788208 69.06673828 352.2217041 70.00066406 351.64770508 70.96289062 C350.62134266 72.68650926 349.59757068 74.41167416 348.5769043 76.13867188 C348.13000244 76.88955078 347.68310059 77.64042969 347.22265625 78.4140625 C346.83859619 79.0632666 346.45453613 79.7124707 346.05883789 80.38134766 C345 82 345 82 343 84 C340.42997825 84.20532228 337.96639499 84.28511617 335.39450073 84.2784729 C334.60058272 84.2842653 333.80666472 84.2900577 332.98868859 84.29602563 C330.31387039 84.31310487 327.63922389 84.3159089 324.96435547 84.31884766 C323.05275038 84.32814038 321.14114936 84.33830806 319.22955322 84.34928894 C314.02736691 84.37667702 308.8252078 84.39176435 303.6229682 84.40471697 C298.19100656 84.4203091 292.75910081 84.44711171 287.32717896 84.4727478 C277.03538641 84.51960518 266.74358344 84.55631554 256.45173848 84.58942068 C244.73724931 84.627593 233.02281617 84.6770159 221.30837417 84.72740483 C197.20562426 84.83082815 173.10283839 84.92005463 149 85 C149.73319458 86.20700813 149.73319458 86.20700813 150.48120117 87.43840027 C152.31711817 90.4609376 154.15287404 93.48357269 155.98852539 96.50627136 C156.77882671 97.80755897 157.56918984 99.10880905 158.35961914 100.41001892 C163.93560354 109.5893642 169.48947473 118.78117679 175 128 C181.28045088 138.4912915 187.6028244 148.956258 193.95654297 159.40332031 C198.80237088 167.37142585 203.62200929 175.35442267 208.41040039 183.35717773 C211.96063117 189.28382587 215.53981964 195.19257201 219.12939453 201.09545898 C220.57948931 203.48018104 222.02700421 205.86643698 223.47216797 208.25415039 C226.74125716 213.65286171 230.01880056 219.04473204 233.35606384 224.4016571 C234.43652633 226.13890565 235.51073382 227.87985193 236.58276367 229.62231445 C237.91624768 231.78697426 239.2610018 233.94474302 240.6184082 236.09448242 C241.50725708 237.54624878 241.50725708 237.54624878 242.4140625 239.02734375 C242.9395166 239.87031006 243.4649707 240.71327637 244.00634766 241.58178711 C245.24862965 244.60508027 245.02826437 245.92301952 244 249 C242.77929688 251.41821289 242.77929688 251.41821289 241.21875 253.97265625 C240.63279053 254.94025879 240.04683105 255.90786133 239.44311523 256.90478516 C238.80188721 257.94683105 238.16065918 258.98887695 237.5 260.0625 C236.47986844 261.7406417 235.45974089 263.41878583 234.43980408 265.0970459 C233.36241081 266.86694175 232.28151807 268.63465689 231.19970703 270.40185547 C229.02811063 273.95068502 226.8698261 277.50746971 224.71484375 281.06640625 C222.58076553 284.59081252 220.4454064 288.11437607 218.30029297 291.63208008 C214.8061536 297.36321582 211.3359828 303.10586404 207.91796875 308.8828125 C207.27738525 309.95772949 206.63680176 311.03264648 205.97680664 312.14013672 C204.76788869 314.17035384 203.56744713 316.2056492 202.37670898 318.24658203 C201.84247314 319.13974121 201.3082373 320.03290039 200.7578125 320.953125 C200.2952002 321.73848633 199.83258789 322.52384766 199.35595703 323.33300781 C198.90849121 323.88311523 198.46102539 324.43322266 198 325 C197.01 325 196.02 325 195 325 C193.51110125 322.93578334 192.25725942 320.94332063 191.0078125 318.73828125 C190.62587738 318.08542648 190.24394226 317.43257172 189.85043335 316.75993347 C189.02834095 315.35204909 188.21127592 313.94121976 187.39868164 312.52783203 C185.68621319 309.54931206 183.95040437 306.58465911 182.21539307 303.61923218 C181.34744359 302.13542164 180.48070421 300.65090259 179.61517334 299.16567993 C176.33872574 293.54932992 172.96021537 288.0051725 169.5 282.5 C163.51902561 272.94641882 157.78506186 263.25179801 152.04882812 253.55029297 C145.64127373 242.70402321 145.64127373 242.70402321 139 232 C134.04597609 224.21446627 129.38362703 216.25490649 124.6875 208.3125 C119.37230235 199.32323096 114.03991678 190.35341077 108.5 181.5 C102.52110424 171.9450514 96.78510536 162.25187158 91.04882812 152.55029297 C86.43203023 144.74459138 81.79530762 136.96233087 76.92504883 129.3112793 C71.84289311 121.26335757 67.06481756 113.02795553 62.22021484 104.8359375 C55.72883757 93.84566412 55.72883757 93.84566412 49 83 C43.979192 75.11276707 39.25880802 67.04670141 34.5 59 C27.2490775 46.70588808 27.2490775 46.70588808 19.75 34.5625 C15.72767472 28.20907499 11.80633055 21.79594218 7.92150879 15.3576355 C6.89173903 13.6527137 5.85752608 11.95047812 4.82324219 10.24829102 C4.19836914 9.20987061 3.57349609 8.1714502 2.9296875 7.1015625 C2.36491699 6.16650879 1.80014648 5.23145508 1.21826172 4.26806641 C0 2 0 2 0 0 Z " fill="#820126" transform="translate(112,95)"/>
</svg>
